<?xml version="1.0" encoding="UTF-8" standalone="no"?>
<!-- Created with Inkscape (http://www.inkscape.org/) -->

<svg
   xmlns:dc="http://purl.org/dc/elements/1.1/"
   xmlns:cc="http://creativecommons.org/ns#"
   xmlns:rdf="http://www.w3.org/1999/02/22-rdf-syntax-ns#"
   xmlns:svg="http://www.w3.org/2000/svg"
   xmlns="http://www.w3.org/2000/svg"
   xmlns:sodipodi="http://sodipodi.sourceforge.net/DTD/sodipodi-0.dtd"
   xmlns:inkscape="http://www.inkscape.org/namespaces/inkscape"
   width="88.130005mm"
   height="105.73878mm"
   viewBox="0 0 88.130006 105.73878"
   version="1.1"
   id="svg5449"
   inkscape:version="0.92.1 r15371"
   sodipodi:docname="image2.svg">
  <defs
     id="defs5443">
    <clipPath
       clipPathUnits="userSpaceOnUse"
       id="clipPath30">
      <path
         d="M 0,800 H 800 V 0 H 0 Z"
         id="path28"
         inkscape:connector-curvature="0" />
    </clipPath>
    <clipPath
       clipPathUnits="userSpaceOnUse"
       id="clipPath340">
      <path
         d="M 0,800 H 800 V 0 H 0 Z"
         id="path338"
         inkscape:connector-curvature="0" />
    </clipPath>
  </defs>
  <sodipodi:namedview
     id="base"
     pagecolor="#ffffff"
     bordercolor="#666666"
     borderopacity="1.0"
     inkscape:pageopacity="0.0"
     inkscape:pageshadow="2"
     inkscape:zoom="0.35"
     inkscape:cx="275.39419"
     inkscape:cy="53.010063"
     inkscape:document-units="mm"
     inkscape:current-layer="layer1"
     showgrid="false"
     inkscape:window-width="1366"
     inkscape:window-height="744"
     inkscape:window-x="0"
     inkscape:window-y="24"
     inkscape:window-maximized="1" />
  <metadata
     id="metadata5446">
    <rdf:RDF>
      <cc:Work
         rdf:about="">
        <dc:format>image/svg+xml</dc:format>
        <dc:type
           rdf:resource="http://purl.org/dc/dcmitype/StillImage" />
        <dc:title></dc:title>
      </cc:Work>
    </rdf:RDF>
  </metadata>
  <g
     inkscape:label="Capa 1"
     inkscape:groupmode="layer"
     id="layer1"
     transform="translate(-5.7543353,3.3560562)">
    <g
       transform="matrix(0.41719153,0,0,-0.48436615,-197.40392,128.54944)"
       id="g334">
      <g
         id="g336"
         clip-path="url(#clipPath340)">
        <g
           id="g342"
           transform="translate(521.9385,128.8652)">
          <path
             d="m 0,0 c 0,0 -43.594,11.085 -33.438,65.685 0,0 1.773,-30.152 24.772,-36.751 z"
             style="fill:#58595b;fill-opacity:1;fill-rule:nonzero;stroke:none"
             id="path344"
             inkscape:connector-curvature="0" />
        </g>
        <g
           id="g346"
           transform="translate(626.5771,266.418)">
          <path
             d="m 0,0 c -5.892,3.438 -12.749,5.408 -20.062,5.408 -7.316,0 -14.168,-1.97 -20.064,-5.408 -11.853,-6.913 -19.821,-19.765 -19.821,-34.474 0,-7.476 2.058,-14.469 5.637,-20.45 6.965,-11.641 19.695,-19.436 34.248,-19.436 14.555,0 27.285,7.795 34.25,19.436 3.579,5.981 5.633,12.974 5.633,20.45 C 19.821,-19.765 11.856,-6.913 0,0"
             style="fill:#ffffff;fill-opacity:1;fill-rule:nonzero;stroke:none"
             id="path348"
             inkscape:connector-curvature="0" />
        </g>
        <g
           id="g350"
           transform="translate(626.5771,266.418)">
          <path
             d="m 0,0 c -5.892,3.438 -12.749,5.408 -20.062,5.408 -7.316,0 -14.168,-1.97 -20.064,-5.408 -11.853,-6.913 -19.821,-19.765 -19.821,-34.474 0,-7.476 2.058,-14.469 5.637,-20.45 6.965,-11.641 19.695,-19.436 34.248,-19.436 14.555,0 27.285,7.795 34.25,19.436 3.579,5.981 5.633,12.974 5.633,20.45 C 19.821,-19.765 11.856,-6.913 0,0 Z"
             style="fill:none;stroke:#58595b;stroke-width:1;stroke-linecap:butt;stroke-linejoin:miter;stroke-miterlimit:10;stroke-dasharray:none;stroke-opacity:1"
             id="path352"
             inkscape:connector-curvature="0" />
        </g>
        <g
           id="g354"
           transform="translate(621.2441,246.2588)">
          <path
             d="m 0,0 c 0,7.336 1.937,14.217 5.333,20.159 -5.892,3.439 -12.749,5.408 -20.062,5.408 -7.316,0 -14.168,-1.969 -20.064,-5.408 3.396,-5.942 5.337,-12.823 5.337,-20.159 0,-14.718 -7.814,-27.611 -19.521,-34.765 6.965,-11.641 19.695,-19.436 34.248,-19.436 14.555,0 27.285,7.795 34.25,19.436 C 7.813,-27.611 0,-14.718 0,0"
             style="fill:#ffffff;fill-opacity:1;fill-rule:nonzero;stroke:none"
             id="path356"
             inkscape:connector-curvature="0" />
        </g>
        <g
           id="g358"
           transform="translate(626.5771,266.418)">
          <path
             d="m 0,0 c -3.396,-5.942 -5.333,-12.823 -5.333,-20.159 0,-14.718 7.813,-27.612 19.521,-34.765 3.579,5.981 5.633,12.974 5.633,20.45 C 19.821,-19.765 11.856,-6.913 0,0"
             style="fill:#58595b;fill-opacity:1;fill-rule:nonzero;stroke:none"
             id="path360"
             inkscape:connector-curvature="0" />
        </g>
        <g
           id="g362"
           transform="translate(591.7881,246.2588)">
          <path
             d="m 0,0 c 0,7.336 -1.941,14.217 -5.337,20.159 -11.852,-6.913 -19.821,-19.764 -19.821,-34.473 0,-7.477 2.058,-14.47 5.637,-20.451 C -7.813,-27.611 0,-14.718 0,0"
             style="fill:#58595b;fill-opacity:1;fill-rule:nonzero;stroke:none"
             id="path364"
             inkscape:connector-curvature="0" />
        </g>
        <g
           id="g366"
           transform="translate(584.626,245.1572)">
          <path
             d="m 0,0 c 0,-2.266 -1.838,-4.104 -4.108,-4.104 -2.261,0 -4.104,1.838 -4.104,4.104 0,2.266 1.843,4.104 4.104,4.104 C -1.838,4.104 0,2.266 0,0"
             style="fill:#ffffff;fill-opacity:1;fill-rule:nonzero;stroke:none"
             id="path368"
             inkscape:connector-curvature="0" />
        </g>
        <g
           id="g370"
           transform="translate(637.458,245.1572)">
          <path
             d="m 0,0 c 0,-2.266 -1.838,-4.104 -4.108,-4.104 -2.261,0 -4.104,1.838 -4.104,4.104 0,2.266 1.843,4.104 4.104,4.104 C -1.838,4.104 0,2.266 0,0"
             style="fill:#ffffff;fill-opacity:1;fill-rule:nonzero;stroke:none"
             id="path372"
             inkscape:connector-curvature="0" />
        </g>
        <g
           id="g374"
           transform="translate(599.7832,225.4834)">
          <path
             d="m 0,0 c 3.025,0.999 6.729,1.039 9.873,0.783 3.936,-0.324 10.539,-1.859 12.195,-6.133 0.324,0.936 0.459,1.891 0.307,2.827 C 21.552,2.615 14.144,4.393 9.873,4.737 6.729,4.997 3.025,4.953 0,3.961 -3.091,2.938 -7.329,0.104 -7.392,-3.506 c -0.004,-0.097 0,-0.187 0,-0.289 0.028,-0.635 0.171,-1.266 0.387,-1.873 C -5.894,-2.927 -2.559,-0.845 0,0"
             style="fill:#58595b;fill-opacity:1;fill-rule:nonzero;stroke:none"
             id="path376"
             inkscape:connector-curvature="0" />
        </g>
        <g
           id="g378"
           transform="translate(598.9551,212.833)">
          <path
             d="m 0,0 c 1.902,-1.346 4.018,-2.27 6.252,-2.894 4.182,-1.174 8.192,0.533 11.313,3.279 1.837,1.616 4.384,4.198 5.331,6.916 -1.656,4.273 -8.259,5.808 -12.195,6.133 C 7.557,13.689 3.854,13.649 0.828,12.65 -1.73,11.806 -5.065,9.724 -6.177,6.982 -5.156,4.106 -2.303,1.621 0,0"
             style="fill:#58595b;fill-opacity:1;fill-rule:nonzero;stroke:none"
             id="path380"
             inkscape:connector-curvature="0" />
        </g>
        <g
           id="g382"
           transform="translate(595.9492,204.2568)">
          <path
             d="M 0,0 C 0,0 8.93,-6.735 21.135,0"
             style="fill:none;stroke:#58595b;stroke-width:2.40100002;stroke-linecap:butt;stroke-linejoin:miter;stroke-miterlimit:10;stroke-dasharray:none;stroke-opacity:1"
             id="path384"
             inkscape:connector-curvature="0" />
        </g>
        <g
           id="g386"
           transform="translate(606.5156,201.2646)">
          <path
             d="M 0,0 V 7.181"
             style="fill:none;stroke:#58595b;stroke-width:2.40100002;stroke-linecap:butt;stroke-linejoin:miter;stroke-miterlimit:10;stroke-dasharray:none;stroke-opacity:1"
             id="path388"
             inkscape:connector-curvature="0" />
        </g>
        <g
           id="g390"
           transform="translate(641.0654,244.1299)">
          <path
             d="m 0,0 c 0,0 13.907,1.697 13.635,-10.197 0,0 -5.728,-31.659 15.815,-22.049 9.306,4.15 7.552,16.416 3.551,23.643 C 29.488,-2.261 24.826,2.964 18.269,6.163 14.938,7.791 11.332,9.184 7.646,9.676 6.58,9.816 -4.766,8.64 -4.362,7.908 -4.362,7.903 0,0 0,0"
             style="fill:#58595b;fill-opacity:1;fill-rule:nonzero;stroke:none"
             id="path392"
             inkscape:connector-curvature="0" />
        </g>
        <g
           id="g394"
           transform="translate(574.7529,244.1299)">
          <path
             d="m 0,0 c 0,0 -13.906,1.697 -13.635,-10.197 0,0 5.728,-31.659 -15.815,-22.049 -9.306,4.15 -7.552,16.416 -3.551,23.643 3.513,6.342 8.175,11.567 14.732,14.766 3.331,1.628 6.937,3.021 10.623,3.513 C -6.58,9.816 4.766,8.64 4.362,7.908 4.362,7.903 0,0 0,0"
             style="fill:#58595b;fill-opacity:1;fill-rule:nonzero;stroke:none"
             id="path396"
             inkscape:connector-curvature="0" />
        </g>
        <g
           id="g398"
           transform="translate(656.2383,211.2236)">
          <path
             d="m 0,0 c -3.002,0.26 -5.812,0.387 -8.446,0.387 -21.086,0 -31.209,-8.073 -42.783,-20.3 -0.016,-0.017 -0.031,-0.032 -0.046,-0.048 -11.594,12.255 -21.722,20.348 -42.831,20.348 -2.635,0 -5.445,-0.127 -8.446,-0.387 -18.27,-1.583 -39.396,-16.419 -41.969,-44.852 v -9.461 c 2.396,-27.212 25.554,-60.777 93.246,-102.888 0.015,0.01 0.03,0.019 0.046,0.029 67.652,42.098 90.808,75.653 93.203,102.859 v 9.461 C 39.396,-16.419 18.269,-1.583 0,0"
             style="fill:#fbaa1f;fill-opacity:1;fill-rule:nonzero;stroke:none"
             id="path400"
             inkscape:connector-curvature="0" />
        </g>
        <g
           id="g402"
           transform="translate(676.5,179.25)">
          <path
             d="m 0,0 c 0,-7.594 6.156,-13.75 13.75,-13.75 2.893,0 5.573,0.897 7.787,2.423 C 20.363,-1.25 16.836,7.062 11.94,13.617 5.204,12.729 0,6.979 0,0"
             style="fill:#ffffff;fill-opacity:1;fill-rule:nonzero;stroke:none"
             id="path404"
             inkscape:connector-curvature="0" />
        </g>
        <g
           id="g406"
           transform="translate(533.5371,179.25)">
          <path
             d="m 0,0 c 0,-7.594 -6.156,-13.75 -13.75,-13.75 -2.893,0 -5.573,0.897 -7.787,2.423 1.174,10.077 4.701,18.389 9.597,24.944 C -5.204,12.729 0,6.979 0,0"
             style="fill:#ffffff;fill-opacity:1;fill-rule:nonzero;stroke:none"
             id="path408"
             inkscape:connector-curvature="0" />
        </g>
      </g>
    </g>
    <text
       y="53.465363"
       x="45.773697"
       style="font-variant:normal;font-weight:normal;font-stretch:normal;font-size:10.44140625px;font-family:'Alfa Slab One';-inkscape-font-specification:AlfaSlabOne-Regular;writing-mode:lr-tb;fill:#ffffff;fill-opacity:1;fill-rule:nonzero;stroke:none;stroke-width:0.4495258"
       id="text414"
       transform="scale(0.92807024,1.0775047)">
      <tspan
         style="stroke-width:0.4495258"
         x="45.773697 54.481827 63.200401"
         y="53.465363"
         sodipodi:role="line"
         id="tspan410">PET</tspan>
      <tspan
         style="stroke-width:0.4495258"
         x="38.88237 47.089317 55.859043 65.132065 74.675507"
         y="70.850304"
         sodipodi:role="line"
         id="tspan412">STORE</tspan>
    </text>
  </g>
</svg>
