<?xml version="1.0" encoding="UTF-8" standalone="no"?>
<!-- Created with Inkscape (http://www.inkscape.org/) -->

<svg
   xmlns:dc="http://purl.org/dc/elements/1.1/"
   xmlns:cc="http://creativecommons.org/ns#"
   xmlns:rdf="http://www.w3.org/1999/02/22-rdf-syntax-ns#"
   xmlns:svg="http://www.w3.org/2000/svg"
   xmlns="http://www.w3.org/2000/svg"
   xmlns:sodipodi="http://sodipodi.sourceforge.net/DTD/sodipodi-0.dtd"
   xmlns:inkscape="http://www.inkscape.org/namespaces/inkscape"
   version="1.1"
   id="svg2"
   xml:space="preserve"
   width="304.41064"
   height="137.10933"
   viewBox="0 0 304.41064 137.10933"
   sodipodi:docname="image4.svg"
   inkscape:export-filename="/home/baangaritar/Descargas/image1.png"
   inkscape:export-xdpi="96"
   inkscape:export-ydpi="96"
   inkscape:version="0.92.1 r15371"><metadata
     id="metadata8"><rdf:RDF><cc:Work
         rdf:about=""><dc:format>image/svg+xml</dc:format><dc:type
           rdf:resource="http://purl.org/dc/dcmitype/StillImage" /><dc:title></dc:title></cc:Work></rdf:RDF></metadata><defs
     id="defs6"><clipPath
       clipPathUnits="userSpaceOnUse"
       id="clipPath20"><path
         d="M 0,800 H 800 V 0 H 0 Z"
         id="path18"
         inkscape:connector-curvature="0" /></clipPath><clipPath
       clipPathUnits="userSpaceOnUse"
       id="clipPath30"><path
         d="M 0,800 H 800 V 0 H 0 Z"
         id="path28"
         inkscape:connector-curvature="0" /></clipPath><clipPath
       clipPathUnits="userSpaceOnUse"
       id="clipPath104"><path
         d="M 0,800 H 800 V 0 H 0 Z"
         id="path102"
         inkscape:connector-curvature="0" /></clipPath><clipPath
       clipPathUnits="userSpaceOnUse"
       id="clipPath304"><path
         d="M 0,800 H 800 V 0 H 0 Z"
         id="path302"
         inkscape:connector-curvature="0" /></clipPath><clipPath
       clipPathUnits="userSpaceOnUse"
       id="clipPath340"><path
         d="M 0,800 H 800 V 0 H 0 Z"
         id="path338"
         inkscape:connector-curvature="0" /></clipPath><clipPath
       clipPathUnits="userSpaceOnUse"
       id="clipPath422"><path
         d="M 0,800 H 800 V 0 H 0 Z"
         id="path420"
         inkscape:connector-curvature="0" /></clipPath><clipPath
       clipPathUnits="userSpaceOnUse"
       id="clipPath446"><path
         d="M 0,800 H 800 V 0 H 0 Z"
         id="path444"
         inkscape:connector-curvature="0" /></clipPath><clipPath
       clipPathUnits="userSpaceOnUse"
       id="clipPath466"><path
         d="m 195.189,212.006 h 87.622 v -79.463 h -87.622 z"
         id="path464"
         inkscape:connector-curvature="0" /></clipPath><clipPath
       clipPathUnits="userSpaceOnUse"
       id="clipPath590"><path
         d="M 0,800 H 800 V 0 H 0 Z"
         id="path588"
         inkscape:connector-curvature="0" /></clipPath><clipPath
       clipPathUnits="userSpaceOnUse"
       id="clipPath268"><path
         d="M 0,800 H 800 V 0 H 0 Z"
         id="path266"
         inkscape:connector-curvature="0" /></clipPath></defs><sodipodi:namedview
     pagecolor="#ffffff"
     bordercolor="#666666"
     borderopacity="1"
     objecttolerance="10"
     gridtolerance="10"
     guidetolerance="10"
     inkscape:pageopacity="0"
     inkscape:pageshadow="2"
     inkscape:window-width="1366"
     inkscape:window-height="744"
     id="namedview4"
     showgrid="false"
     inkscape:zoom="0.62578945"
     inkscape:cx="518.65914"
     inkscape:cy="160.28735"
     inkscape:window-x="0"
     inkscape:window-y="24"
     inkscape:window-maximized="1"
     inkscape:current-layer="g10" /><g
     id="g10"
     inkscape:groupmode="layer"
     inkscape:label="74781-OFLSAA-427"
     transform="matrix(1.3333333,0,0,-1.3333333,-25.170626,1057.7052)"><g
       id="g14"><g
         id="g16"
         clip-path="url(#clipPath20)"><path
           d="M 800,0 H 0 v 800 h 800 z"
           style="fill:none;stroke:#231f20;stroke-width:1;stroke-linecap:butt;stroke-linejoin:miter;stroke-miterlimit:10;stroke-dasharray:none;stroke-opacity:1"
           id="path22"
           inkscape:connector-curvature="0" /></g></g><g
       transform="translate(-526.93373,582.86322)"
       id="g262"><g
         id="g264"
         clip-path="url(#clipPath268)"><g
           id="g270"
           transform="translate(770.5937,144.3857)"><path
             d="m 0,0 c -8.141,14.351 0,29.222 0,29.222 l -0.01,0.008 c 2.238,3.582 3.536,7.718 3.536,12.14 0,13.37 -11.675,24.225 -26.246,24.621 v 0.017 c -0.114,0.01 -0.225,-0.006 -0.339,0 -0.162,0.004 -0.319,0.022 -0.485,0.022 -0.147,0 -0.292,-0.018 -0.437,-0.018 -18.317,0.403 -33.542,-20.55 -33.542,-20.55 h -106.206 c 0,0 -15.225,20.953 -33.542,20.55 -0.151,0 -0.291,0.018 -0.441,0.018 -0.164,0 -0.319,-0.018 -0.481,-0.022 -0.118,-0.006 -0.227,0.01 -0.338,0 v -0.017 c -14.568,-0.396 -26.251,-11.251 -26.251,-24.621 0,-4.422 1.302,-8.558 3.538,-12.14 l -0.006,-0.008 c 0,0 8.135,-14.871 0,-29.222 l 0.006,-0.004 c -2.236,-3.584 -3.538,-7.718 -3.538,-12.14 0,-13.371 11.683,-24.222 26.251,-24.618 v -0.018 c 0.111,-0.008 0.22,0.007 0.338,0 0.162,-0.003 0.317,-0.022 0.481,-0.022 0.15,0 0.29,0.019 0.441,0.019 18.317,-0.403 33.542,20.55 33.542,20.55 h 106.206 c 0,0 15.225,-20.953 33.542,-20.55 0.145,0 0.29,-0.019 0.437,-0.019 0.166,0 0.323,0.019 0.485,0.022 0.114,0.007 0.225,-0.008 0.339,0 v 0.018 c 14.571,0.396 26.246,11.247 26.246,24.618 0,4.422 -1.298,8.556 -3.534,12.14 z"
             style="fill:#65a5a0;fill-opacity:1;fill-rule:nonzero;stroke:none"
             id="path272"
             inkscape:connector-curvature="0" /></g></g></g><text
       y="-731.63269"
       x="146.76357"
       style="font-variant:normal;font-weight:bold;font-stretch:normal;font-size:30.90369987px;font-family:Quicksand;-inkscape-font-specification:Quicksand-Bold;writing-mode:lr-tb;fill:#ffd14f;fill-opacity:1;fill-rule:nonzero;stroke:none;stroke-width:0.99999994"
       id="text280"
       transform="scale(1,-1)"><tspan
         style="stroke-width:0.99999994"
         x="146.76357 169.50868 185.76404 204.70799"
         y="-731.63269"
         sodipodi:role="line"
         id="tspan274">CATS</tspan><tspan
         style="stroke-width:0.99999994"
         x="126.64525"
         y="-731.63269"
         id="tspan276">&amp;</tspan><tspan
         style="stroke-width:0.99999994"
         x="41.351044 60.016876 83.194649 105.2599"
         y="-731.63269"
         sodipodi:role="line"
         id="tspan278">DOGS</tspan></text>
</g></svg>