<?xml version="1.0" encoding="UTF-8" standalone="no"?>
<!-- Created with Inkscape (http://www.inkscape.org/) -->

<svg
   xmlns:dc="http://purl.org/dc/elements/1.1/"
   xmlns:cc="http://creativecommons.org/ns#"
   xmlns:rdf="http://www.w3.org/1999/02/22-rdf-syntax-ns#"
   xmlns:svg="http://www.w3.org/2000/svg"
   xmlns="http://www.w3.org/2000/svg"
   xmlns:sodipodi="http://sodipodi.sourceforge.net/DTD/sodipodi-0.dtd"
   xmlns:inkscape="http://www.inkscape.org/namespaces/inkscape"
   width="134.70656mm"
   height="102.985mm"
   viewBox="0 0 134.70656 102.985"
   version="1.1"
   id="svg5449"
   inkscape:version="0.92.1 r15371"
   sodipodi:docname="image1.svg">
  <defs
     id="defs5443">
    <clipPath
       clipPathUnits="userSpaceOnUse"
       id="clipPath30">
      <path
         d="M 0,800 H 800 V 0 H 0 Z"
         id="path28"
         inkscape:connector-curvature="0" />
    </clipPath>
  </defs>
  <sodipodi:namedview
     id="base"
     pagecolor="#ffffff"
     bordercolor="#666666"
     borderopacity="1.0"
     inkscape:pageopacity="0.0"
     inkscape:pageshadow="2"
     inkscape:zoom="0.35"
     inkscape:cx="263.13502"
     inkscape:cy="78.903045"
     inkscape:document-units="mm"
     inkscape:current-layer="layer1"
     showgrid="false"
     inkscape:window-width="1366"
     inkscape:window-height="744"
     inkscape:window-x="0"
     inkscape:window-y="24"
     inkscape:window-maximized="1" />
  <metadata
     id="metadata5446">
    <rdf:RDF>
      <cc:Work
         rdf:about="">
        <dc:format>image/svg+xml</dc:format>
        <dc:type
           rdf:resource="http://purl.org/dc/dcmitype/StillImage" />
        <dc:title></dc:title>
      </cc:Work>
    </rdf:RDF>
  </metadata>
  <g
     inkscape:label="Capa 1"
     inkscape:groupmode="layer"
     id="layer1"
     transform="translate(-8.9979063,-6.2485722)">
    <g
       transform="matrix(0.55049109,0,0,-0.63412921,-246.65261,305.17155)"
       id="g24">
      <g
         id="g26"
         clip-path="url(#clipPath30)">
        <g
           id="g32"
           transform="translate(684.9316,421.0293)">
          <path
             d="m 0,0 c 5.46,-7.3 8.648,-16.1 8.648,-25.573 0,-25.261 -22.669,-45.74 -50.634,-45.74 -27.964,0 -50.633,20.479 -50.633,45.74 0,25.261 22.669,45.739 50.633,45.739 C -24.508,20.166 -9.099,12.167 0,0"
             style="fill:#f1f2f2;fill-opacity:1;fill-rule:nonzero;stroke:none"
             id="path34"
             inkscape:connector-curvature="0" />
        </g>
        <g
           id="g36"
           transform="translate(688.9473,423.6572)">
          <path
             d="m 0,0 c 0.121,0.424 0.215,0.882 0.267,1.385 0.483,4.542 1.27,11.977 1.75,16.52 0.48,4.543 -2.528,6.71 -6.687,4.817 -4.155,-1.895 -10.959,-4.994 -15.118,-6.887 -0.644,-0.292 -1.184,-0.633 -1.646,-1.003 C -13.126,11.41 -5.812,6.308 0,0"
             style="fill:#e38c01;fill-opacity:1;fill-rule:nonzero;stroke:none"
             id="path38"
             inkscape:connector-curvature="0" />
        </g>
        <g
           id="g40"
           transform="translate(618.3779,438.4893)">
          <path
             d="m 0,0 c -0.462,0.37 -1.003,0.711 -1.646,1.003 -4.159,1.893 -10.96,4.992 -15.117,6.887 -4.158,1.893 -7.167,-0.274 -6.686,-4.817 0.478,-4.543 1.264,-11.978 1.749,-16.52 0.053,-0.503 0.145,-0.961 0.266,-1.385 C -15.622,-8.524 -8.307,-3.422 0,0"
             style="fill:#e38c01;fill-opacity:1;fill-rule:nonzero;stroke:none"
             id="path42"
             inkscape:connector-curvature="0" />
        </g>
        <g
           id="g44"
           transform="translate(684.9316,421.0293)">
          <path
             d="m 0,0 c -6.921,9.255 -17.495,16.093 -29.85,18.838 -0.46,-6.245 -1.81,-12.098 -4.985,-17.52 -3.338,-5.7 -9.771,-12.36 -8.443,-19.551 1.586,-8.597 14.823,-6.746 20.823,-9.488 9.184,-4.196 20.052,-11.327 30.324,-5.8 0.503,2.584 0.779,5.236 0.779,7.948 C 8.648,-16.1 5.46,-7.3 0,0"
             style="fill:#58595b;fill-opacity:1;fill-rule:nonzero;stroke:none"
             id="path46"
             inkscape:connector-curvature="0" />
        </g>
        <g
           id="g48"
           transform="translate(637.4609,402.5469)">
          <path
             d="m 0,0 c -0.651,0 -1.18,0.528 -1.18,1.18 0,4.934 -5.225,8.948 -11.648,8.948 -6.423,0 -11.648,-4.014 -11.648,-8.948 0,-0.652 -0.528,-1.18 -1.179,-1.18 -0.652,0 -1.18,0.528 -1.18,1.18 0,6.235 6.283,11.307 14.007,11.307 C -5.104,12.487 1.18,7.415 1.18,1.18 1.18,0.528 0.651,0 0,0"
             style="fill:#231f20;fill-opacity:1;fill-rule:nonzero;stroke:none"
             id="path50"
             inkscape:connector-curvature="0" />
        </g>
        <g
           id="g52"
           transform="translate(674.4229,402.5469)">
          <path
             d="m 0,0 c -0.651,0 -1.18,0.528 -1.18,1.18 0,4.934 -5.225,8.948 -11.648,8.948 -6.422,0 -11.647,-4.014 -11.647,-8.948 0,-0.652 -0.528,-1.18 -1.179,-1.18 -0.652,0 -1.18,0.528 -1.18,1.18 0,6.235 6.283,11.307 14.006,11.307 C -5.104,12.487 1.18,7.415 1.18,1.18 1.18,0.528 0.651,0 0,0"
             style="fill:#ffffff;fill-opacity:1;fill-rule:nonzero;stroke:none"
             id="path54"
             inkscape:connector-curvature="0" />
        </g>
        <g
           id="g56"
           transform="translate(635.9629,395.4561)">
          <path
             d="m 0,0 h 13.231 c 3.639,0 5.128,-1.88 3.309,-4.178 -1.819,-2.297 -4.798,-6.056 -6.616,-8.355 -1.82,-2.297 -4.797,-2.297 -6.617,0 -1.82,2.299 -4.797,6.058 -6.617,8.355 C -5.13,-1.88 -3.641,0 0,0"
             style="fill:#231f20;fill-opacity:1;fill-rule:nonzero;stroke:none"
             id="path58"
             inkscape:connector-curvature="0" />
        </g>
        <g
           id="g60"
           transform="translate(642.9453,381.8926)">
          <path
             d="m 0,0 c 0,-7.238 -5.434,-13.104 -12.135,-13.104 -6.702,0 -12.137,5.866 -12.137,13.104"
             style="fill:none;stroke:#231f20;stroke-width:2.35899997;stroke-linecap:butt;stroke-linejoin:miter;stroke-miterlimit:10;stroke-dasharray:none;stroke-opacity:1"
             id="path62"
             inkscape:connector-curvature="0" />
        </g>
        <g
           id="g64"
           transform="translate(642.9453,381.8926)">
          <path
             d="m 0,0 c 0,-7.238 5.436,-13.104 12.137,-13.104 6.702,0 12.136,5.866 12.136,13.104"
             style="fill:none;stroke:#231f20;stroke-width:2.35899997;stroke-linecap:butt;stroke-linejoin:miter;stroke-miterlimit:10;stroke-dasharray:none;stroke-opacity:1"
             id="path66"
             inkscape:connector-curvature="0" />
        </g>
        <g
           id="g68"
           transform="translate(708.8545,395.4561)">
          <path
             d="M 0,0 C -22.785,5.146 -49.874,-7.127 -49.874,-7.127"
             style="fill:none;stroke:#231f20;stroke-width:1.57200003;stroke-linecap:butt;stroke-linejoin:miter;stroke-miterlimit:10;stroke-dasharray:none;stroke-opacity:1"
             id="path70"
             inkscape:connector-curvature="0" />
        </g>
        <g
           id="g72"
           transform="translate(708.8545,388.3291)">
          <path
             d="M 0,0 C 0,0 -27.848,6.119 -51.646,0"
             style="fill:none;stroke:#231f20;stroke-width:1.57200003;stroke-linecap:butt;stroke-linejoin:miter;stroke-miterlimit:10;stroke-dasharray:none;stroke-opacity:1"
             id="path74"
             inkscape:connector-curvature="0" />
        </g>
        <g
           id="g76"
           transform="translate(708.8545,380.1836)">
          <path
             d="M 0,0 C 0,0 -33.707,11.434 -51.646,7.087"
             style="fill:none;stroke:#231f20;stroke-width:1.57200003;stroke-linecap:butt;stroke-linejoin:miter;stroke-miterlimit:10;stroke-dasharray:none;stroke-opacity:1"
             id="path78"
             inkscape:connector-curvature="0" />
        </g>
        <g
           id="g80"
           transform="translate(576.1934,395.4561)">
          <path
             d="M 0,0 C 22.787,5.146 49.875,-7.127 49.875,-7.127"
             style="fill:none;stroke:#231f20;stroke-width:1.57200003;stroke-linecap:butt;stroke-linejoin:miter;stroke-miterlimit:10;stroke-dasharray:none;stroke-opacity:1"
             id="path82"
             inkscape:connector-curvature="0" />
        </g>
        <g
           id="g84"
           transform="translate(576.1934,388.3291)">
          <path
             d="M 0,0 C 0,0 27.85,6.119 51.647,0"
             style="fill:none;stroke:#231f20;stroke-width:1.57200003;stroke-linecap:butt;stroke-linejoin:miter;stroke-miterlimit:10;stroke-dasharray:none;stroke-opacity:1"
             id="path86"
             inkscape:connector-curvature="0" />
        </g>
        <g
           id="g88"
           transform="translate(576.1934,380.1836)">
          <path
             d="M 0,0 C 0,0 33.709,11.434 51.647,7.087"
             style="fill:none;stroke:#231f20;stroke-width:1.57200003;stroke-linecap:butt;stroke-linejoin:miter;stroke-miterlimit:10;stroke-dasharray:none;stroke-opacity:1"
             id="path90"
             inkscape:connector-curvature="0" />
        </g>
      </g>
    </g>
    <text
       y="97.853401"
       x="11.907671"
       style="font-variant:normal;font-weight:normal;font-stretch:normal;font-size:18.6046505px;font-family:'Alfa Slab One';-inkscape-font-specification:AlfaSlabOne-Regular;writing-mode:lr-tb;fill:#e38c01;fill-opacity:1;fill-rule:nonzero;stroke:none;stroke-width:0.590832"
       id="text96"
       transform="scale(0.93172183,1.0732817)">
      <tspan
         style="stroke-width:0.590832"
         x="11.907671 26.344877 40.019287"
         y="97.853401"
         sodipodi:role="line"
         id="tspan92">VET</tspan>
      <tspan
         style="stroke-width:0.590832"
         x="54.344872 87.833252 103.98208 117.6565 130.1402"
         sodipodi:role="line"
         id="tspan94"
         y="97.853401">HELP</tspan>
    </text>
    <g
       id="g106"
       transform="matrix(0.55049109,0,0,-0.63412921,69.421183,93.32454)">
      <path
         d="M 0,0 V 12.468 H 12.62 V 0 H 25.012 V -12.619 H 12.62 V -25.088 H 0 v 12.469 H -12.469 V 0 Z"
         style="fill:#489fa8;fill-opacity:1;fill-rule:nonzero;stroke:none"
         id="path108"
         inkscape:connector-curvature="0" />
    </g>
    <g
       id="g110"
       transform="matrix(0.55049109,0,0,-0.63412921,34.362844,23.372661)">
      <path
         d="m 0,0 c 8.558,1.769 18.696,-1.88 25.907,-7.037 8.441,-6.035 13.333,-15.941 15.387,-25.959 1.57,-7.671 -2.481,-14.948 -3.639,-22.365 -0.439,-2.812 -0.641,-5.831 -0.148,-8.659 1.096,-6.284 7.014,-11.792 6.321,-18.415 -0.876,-8.376 -11.667,-10.93 -18.511,-11.744 0,0 -72.91,-9.452 -52.997,24.978 6.308,10.911 -5.525,23.945 -4.289,35.19 1.025,9.32 3.97,17.911 11.1,24.292 C -15.112,-4.566 -7.507,-1.554 0,0"
         style="fill:#f1f2f2;fill-opacity:1;fill-rule:nonzero;stroke:none"
         id="path112"
         inkscape:connector-curvature="0" />
    </g>
    <g
       id="g114"
       transform="matrix(0.55049109,0,0,-0.63412921,63.756093,22.671944)">
      <path
         d="m 0,0 c -0.819,4.471 -1.184,9.143 -1.133,13.688 0.016,1.4 -0.238,11.408 1.41,12.211 -19.923,-9.707 -24.766,-25.396 -25.946,-32.461 7.23,-5.356 12.57,-13.904 15.24,-24.328 6.19,-0.106 10.164,4.002 11.906,9.881 C 3.683,-13.563 1.353,-7.367 0,0"
         style="fill:#58595b;fill-opacity:1;fill-rule:nonzero;stroke:none"
         id="path116"
         inkscape:connector-curvature="0" />
    </g>
    <g
       id="g118"
       transform="matrix(0.55049109,0,0,-0.63412921,22.007458,28.4209)">
      <path
         d="m 0,0 c 1.308,1.17 2.742,2.261 4.286,3.273 -1.397,7.381 -6.578,22.323 -25.809,31.692 1.648,-0.803 1.394,-10.811 1.41,-12.211 0.051,-4.545 -0.314,-9.217 -1.133,-13.688 -1.353,-7.367 -3.683,-13.564 -1.477,-21.009 1.696,-5.722 5.513,-9.755 11.424,-9.869 C -9.641,-12.469 -5.927,-5.307 0,0"
         style="fill:#58595b;fill-opacity:1;fill-rule:nonzero;stroke:none"
         id="path120"
         inkscape:connector-curvature="0" />
    </g>
    <g
       id="g122"
       transform="matrix(0.55049109,0,0,-0.63412921,47.843437,50.53926)">
      <path
         d="m 0,0 c -0.815,5.068 -1.275,10.285 -2.895,15.018 -3.747,10.953 -18.852,16.156 -27.165,7.165 -2.046,-2.213 -4.092,-5.495 -4.946,-8.404 -1.063,-3.624 -1.678,-7.792 -1.683,-11.572 -0.009,-6.137 -0.88,-11.81 -4.335,-17.005 -2.488,-3.74 -5.691,-7.191 -9.137,-10.073 -0.453,-0.379 -1.715,-0.984 -2.007,-1.489 -19.913,-34.431 52.997,-24.978 52.997,-24.978 6.844,0.814 17.635,3.368 18.511,11.744 0.693,6.623 -5.226,12.131 -6.321,18.415 -0.05,0.278 -1.59,1.059 -1.81,1.217 -1.55,1.108 -3.029,2.329 -4.363,3.693 C 2.417,-11.741 0.961,-5.973 0,0"
         style="fill:#e38c01;fill-opacity:1;fill-rule:nonzero;stroke:none"
         id="path124"
         inkscape:connector-curvature="0" />
    </g>
    <g
       id="g126"
       transform="matrix(0.55049109,0,0,-0.63412921,26.233962,50.36342)">
      <path
         d="m 0,0 c 0,-2.703 -2.191,-4.894 -4.895,-4.894 -2.704,0 -4.894,2.191 -4.894,4.894 0,2.705 2.19,4.896 4.894,4.896 C -2.191,4.896 0,2.705 0,0"
         style="fill:#231f20;fill-opacity:1;fill-rule:nonzero;stroke:none"
         id="path128"
         inkscape:connector-curvature="0" />
    </g>
    <g
       id="g130"
       transform="matrix(0.55049109,0,0,-0.63412921,55.453533,50.36342)">
      <path
         d="m 0,0 c 0,-2.703 -2.191,-4.894 -4.894,-4.894 -2.702,0 -4.894,2.191 -4.894,4.894 0,2.705 2.192,4.896 4.894,4.896 C -2.191,4.896 0,2.705 0,0"
         style="fill:#231f20;fill-opacity:1;fill-rule:nonzero;stroke:none"
         id="path132"
         inkscape:connector-curvature="0" />
    </g>
    <g
       id="g134"
       transform="matrix(0.55049109,0,0,-0.63412921,38.238906,70.34496)">
      <path
         d="m 0,0 c 0,0 1.177,-19.13 17.069,-4.562 0,0 -10.227,-14.125 -17.731,-2.207 0,0 -7.43,-12.8 -17.73,2.059 4.123,-5.949 13.942,-7.981 16.391,0.362 0.083,0.288 0.775,4.349 0.529,4.348 z"
         style="fill:#ffffff;fill-opacity:1;fill-rule:nonzero;stroke:none"
         id="path136"
         inkscape:connector-curvature="0" />
    </g>
    <g
       id="g138"
       transform="matrix(0.55049109,0,0,-0.63412921,33.784445,65.95995)">
      <path
         d="m 0,0 c 0,0.726 0.804,1.56 1.293,1.993 2.123,1.904 5.769,1.62 8.389,1.652 1.599,0.019 3.864,-0.452 4.85,-1.833 0.559,-0.784 0.457,-2.48 0.239,-3.349 C 14.495,-2.636 13.862,-3.621 13.173,-4.503 12.003,-5.999 10.5,-7.413 8.545,-7.697 7.327,-7.873 5.535,-7.603 4.488,-6.915 4.482,-6.912 0,-3.972 0,0"
         style="fill:#ffffff;fill-opacity:1;fill-rule:nonzero;stroke:none"
         id="path140"
         inkscape:connector-curvature="0" />
    </g>
  </g>
</svg>
