<?xml version="1.0" encoding="UTF-8" standalone="no"?>
<!-- Created with Inkscape (http://www.inkscape.org/) -->

<svg
   xmlns:dc="http://purl.org/dc/elements/1.1/"
   xmlns:cc="http://creativecommons.org/ns#"
   xmlns:rdf="http://www.w3.org/1999/02/22-rdf-syntax-ns#"
   xmlns:svg="http://www.w3.org/2000/svg"
   xmlns="http://www.w3.org/2000/svg"
   xmlns:sodipodi="http://sodipodi.sourceforge.net/DTD/sodipodi-0.dtd"
   xmlns:inkscape="http://www.inkscape.org/namespaces/inkscape"
   width="85.005646mm"
   height="57.84177mm"
   viewBox="0 0 85.005647 57.841772"
   version="1.1"
   id="svg5449"
   inkscape:version="0.92.1 r15371"
   sodipodi:docname="image4.svg">
  <defs
     id="defs5443">
    <clipPath
       clipPathUnits="userSpaceOnUse"
       id="clipPath30">
      <path
         d="M 0,800 H 800 V 0 H 0 Z"
         id="path28"
         inkscape:connector-curvature="0" />
    </clipPath>
    <clipPath
       clipPathUnits="userSpaceOnUse"
       id="clipPath340">
      <path
         d="M 0,800 H 800 V 0 H 0 Z"
         id="path338"
         inkscape:connector-curvature="0" />
    </clipPath>
    <clipPath
       clipPathUnits="userSpaceOnUse"
       id="clipPath422">
      <path
         d="M 0,800 H 800 V 0 H 0 Z"
         id="path420"
         inkscape:connector-curvature="0" />
    </clipPath>
    <clipPath
       clipPathUnits="userSpaceOnUse"
       id="clipPath466">
      <path
         d="m 195.189,212.006 h 87.622 v -79.463 h -87.622 z"
         id="path464"
         inkscape:connector-curvature="0" />
    </clipPath>
  </defs>
  <sodipodi:namedview
     id="base"
     pagecolor="#ffffff"
     bordercolor="#666666"
     borderopacity="1.0"
     inkscape:pageopacity="0.0"
     inkscape:pageshadow="2"
     inkscape:zoom="0.35"
     inkscape:cx="296.8101"
     inkscape:cy="-17.965937"
     inkscape:document-units="mm"
     inkscape:current-layer="layer1"
     showgrid="false"
     inkscape:window-width="1366"
     inkscape:window-height="744"
     inkscape:window-x="0"
     inkscape:window-y="24"
     inkscape:window-maximized="1" />
  <metadata
     id="metadata5446">
    <rdf:RDF>
      <cc:Work
         rdf:about="">
        <dc:format>image/svg+xml</dc:format>
        <dc:type
           rdf:resource="http://purl.org/dc/dcmitype/StillImage" />
        <dc:title></dc:title>
      </cc:Work>
    </rdf:RDF>
  </metadata>
  <g
     inkscape:label="Capa 1"
     inkscape:groupmode="layer"
     id="layer1"
     transform="translate(-30.326136,-25.761887)">
    <g
       id="g456"
       transform="matrix(0.35277777,0,0,-0.35277777,72.829155,35.653776)">
      <path
         d="M 0,0 C 26.4,0 49.288,-15.283 60.311,-37.463 H 90.583 C 78.052,0.577 42.236,28.04 0,28.04 c -42.238,0 -78.053,-27.463 -90.583,-65.503 h 30.271 C -49.289,-15.283 -26.402,0 0,0"
         style="fill:#fbaa1f;fill-opacity:1;fill-rule:nonzero;stroke:none"
         id="path458"
         inkscape:connector-curvature="0" />
    </g>
    <g
       transform="matrix(0.35277777,0,0,-0.35277777,-11.48491,115.19483)"
       id="g460">
      <g
         id="g462" />
      <g
         id="g490">
        <g
           clip-path="url(#clipPath466)"
           id="g488"
           style="opacity:0.80000299">
          <g
             transform="translate(223.1553,174.2393)"
             id="g470">
            <path
               d="m 0,0 c 0,0 8.889,16.157 25.853,6.462 3.297,-2.663 4.963,-5.742 7.452,-8.934 4.085,-5.239 11.63,-6.299 15.122,-12.168 3.775,-6.345 3.364,-13.707 -0.759,-19.833 0,0 -8.078,-13.735 -27.198,-2.155 -6.314,3.824 -12.133,-2.973 -17.88,-4.32 -5.315,-1.25 -9.862,-1.191 -14.518,2.194 -3.478,2.527 -5.775,7.338 -7.193,11.282 0,0 -2.963,12.927 9.427,18.852 0,0 7.54,2.154 9.694,8.62"
               style="fill:#58595b;fill-opacity:1;fill-rule:nonzero;stroke:none"
               id="path468"
               inkscape:connector-curvature="0" />
          </g>
          <g
             transform="translate(217.1094,181.6963)"
             id="g474">
            <path
               d="m 0,0 c 0,-6.053 -4.906,-10.961 -10.96,-10.961 -6.053,0 -10.96,4.908 -10.96,10.961 0,6.054 4.907,10.962 10.96,10.962 C -4.906,10.962 0,6.054 0,0"
               style="fill:#58595b;fill-opacity:1;fill-rule:nonzero;stroke:none"
               id="path472"
               inkscape:connector-curvature="0" />
          </g>
          <g
             transform="translate(236.6895,201.0439)"
             id="g478">
            <path
               d="m 0,0 c 0,-6.053 -4.907,-10.959 -10.961,-10.959 -6.054,0 -10.962,4.906 -10.962,10.959 0,6.055 4.908,10.962 10.962,10.962 C -4.907,10.962 0,6.055 0,0"
               style="fill:#58595b;fill-opacity:1;fill-rule:nonzero;stroke:none"
               id="path476"
               inkscape:connector-curvature="0" />
          </g>
          <g
             transform="translate(263.4014,201.0439)"
             id="g482">
            <path
               d="m 0,0 c 0,-6.053 -4.905,-10.959 -10.959,-10.959 -6.055,0 -10.962,4.906 -10.962,10.959 0,6.055 4.907,10.962 10.962,10.962 C -4.905,10.962 0,6.055 0,0"
               style="fill:#58595b;fill-opacity:1;fill-rule:nonzero;stroke:none"
               id="path480"
               inkscape:connector-curvature="0" />
          </g>
          <g
             transform="translate(282.8105,181.6963)"
             id="g486">
            <path
               d="m 0,0 c 0,-6.053 -4.906,-10.961 -10.96,-10.961 -6.054,0 -10.961,4.908 -10.961,10.961 0,6.054 4.907,10.962 10.961,10.962 C -4.906,10.962 0,6.054 0,0"
               style="fill:#58595b;fill-opacity:1;fill-rule:nonzero;stroke:none"
               id="path484"
               inkscape:connector-curvature="0" />
          </g>
        </g>
      </g>
    </g>
    <g
       id="g492"
       transform="matrix(0.35277777,0,0,-0.35277777,30.326136,66.102201)">
      <path
         d="m 0,0 h 27.021 28.891 c -1.776,6.029 -2.746,12.399 -2.746,18.995 0,10.717 2.53,20.851 7.004,29.853 H 29.897 0 L 18.092,24.424 Z"
         style="fill:#489fa8;fill-opacity:1;fill-rule:nonzero;stroke:none"
         id="path494"
         inkscape:connector-curvature="0" />
    </g>
    <g
       id="g496"
       transform="matrix(0.35277777,0,0,-0.35277777,44.55197,59.143485)">
      <path
         d="M 0,0 V -9.681 H -9.799 V 0 h -9.623 v 9.799 h 9.623 V 19.48 H 0 V 9.799 H 9.683 V 0 Z"
         style="fill:#ffffff;fill-opacity:1;fill-rule:nonzero;stroke:none"
         id="path498"
         inkscape:connector-curvature="0" />
    </g>
    <g
       id="g500"
       transform="matrix(0.35277777,0,0,-0.35277777,96.576707,59.401152)">
      <path
         d="M 0,0 C 0,-6.596 -0.972,-12.966 -2.747,-18.995 H 26.145 53.164 L 35.072,5.429 53.164,29.853 H 23.268 -7.004 C -2.531,20.851 0,10.717 0,0"
         style="fill:#489fa8;fill-opacity:1;fill-rule:nonzero;stroke:none"
         id="path502"
         inkscape:connector-curvature="0" />
    </g>
    <g
       id="g504"
       transform="matrix(0.35277777,0,0,-0.35277777,104.54246,59.143485)">
      <path
         d="M 0,0 V -9.681 H -9.799 V 0 h -9.623 v 9.799 h 9.623 V 19.48 H 0 V 9.799 H 9.682 V 0 Z"
         style="fill:#ffffff;fill-opacity:1;fill-rule:nonzero;stroke:none"
         id="path506"
         inkscape:connector-curvature="0" />
    </g>
    <g
       id="g508"
       transform="matrix(0.35277777,0,0,-0.35277777,56.030865,37.417311)">
      <path
         d="m 0,0 c 0.084,0.547 -0.032,1.001 -0.358,1.362 -0.325,0.36 -0.767,0.52 -1.33,0.468 -0.563,-0.052 -1.079,-0.299 -1.537,-0.743 -1.847,-1.791 -3.619,-3.7 -5.306,-5.73 0.902,-0.752 1.805,-1.503 2.707,-2.254 1.605,1.929 3.29,3.746 5.046,5.448 C -0.342,-1.027 -0.084,-0.548 0,0 M -1.572,2.495 C -0.828,2.559 -0.244,2.337 0.186,1.852 0.612,1.369 0.761,0.768 0.65,0.049 0.54,-0.673 0.199,-1.303 -0.379,-1.862 c -1.741,-1.689 -3.412,-3.49 -5.003,-5.403 0.451,-0.376 0.902,-0.752 1.354,-1.127 0.147,-0.123 0.144,-0.275 -0.006,-0.457 -0.15,-0.183 -0.299,-0.214 -0.447,-0.093 -1.663,1.353 -3.326,2.708 -4.988,4.061 1.849,2.273 3.802,4.399 5.845,6.38 0.619,0.6 1.309,0.933 2.052,0.996"
         style="fill:#ffffff;fill-opacity:1;fill-rule:nonzero;stroke:none"
         id="path510"
         inkscape:connector-curvature="0" />
    </g>
    <g
       id="g512"
       transform="matrix(0.35277777,0,0,-0.35277777,56.030865,37.417311)">
      <path
         d="m 0,0 c 0.084,0.547 -0.032,1.001 -0.358,1.362 -0.325,0.36 -0.767,0.52 -1.33,0.468 -0.563,-0.052 -1.079,-0.299 -1.537,-0.743 -1.847,-1.791 -3.619,-3.7 -5.306,-5.73 0.902,-0.752 1.805,-1.503 2.707,-2.254 1.605,1.929 3.29,3.746 5.046,5.448 C -0.342,-1.027 -0.084,-0.548 0,0 Z M -1.572,2.495 C -0.828,2.559 -0.244,2.337 0.186,1.852 0.612,1.369 0.761,0.768 0.65,0.049 0.54,-0.673 0.199,-1.303 -0.379,-1.862 c -1.741,-1.689 -3.412,-3.49 -5.003,-5.403 0.451,-0.376 0.902,-0.752 1.354,-1.127 0.147,-0.123 0.144,-0.275 -0.006,-0.457 -0.15,-0.183 -0.299,-0.214 -0.447,-0.093 -1.663,1.353 -3.326,2.708 -4.988,4.061 1.849,2.273 3.802,4.399 5.845,6.38 0.619,0.6 1.309,0.933 2.052,0.996 z"
         style="fill:none;stroke:#ffffff;stroke-width:0.85399997;stroke-linecap:butt;stroke-linejoin:miter;stroke-miterlimit:10;stroke-dasharray:none;stroke-opacity:1"
         id="path514"
         inkscape:connector-curvature="0" />
    </g>
    <g
       id="g516"
       transform="matrix(0.35277777,0,0,-0.35277777,57.556875,36.146782)">
      <path
         d="M 0,0 C 0.513,-0.656 1.026,-1.313 1.539,-1.97 4.008,-0.034 6.585,1.7 9.249,3.234 9.442,3.346 9.586,3.317 9.681,3.151 9.776,2.984 9.727,2.847 9.536,2.736 6.704,1.105 3.969,-0.755 1.361,-2.844 -0.036,-1.092 -1.433,0.66 -2.831,2.412 0.045,4.715 3.059,6.766 6.181,8.563 6.392,8.686 6.546,8.662 6.64,8.496 6.734,8.33 6.677,8.187 6.467,8.066 3.58,6.403 0.785,4.522 -1.892,2.424 -1.379,1.767 -0.866,1.109 -0.353,0.452 2.231,2.478 4.928,4.294 7.715,5.898 7.917,6.016 8.066,5.988 8.161,5.823 8.255,5.657 8.202,5.517 8.001,5.401 5.237,3.81 2.563,2.009 0,0"
         style="fill:#ffffff;fill-opacity:1;fill-rule:nonzero;stroke:none"
         id="path518"
         inkscape:connector-curvature="0" />
    </g>
    <g
       id="g520"
       transform="matrix(0.35277777,0,0,-0.35277777,57.556875,36.146782)">
      <path
         d="M 0,0 C 0.513,-0.656 1.026,-1.313 1.539,-1.97 4.008,-0.034 6.585,1.7 9.249,3.234 9.442,3.346 9.586,3.317 9.681,3.151 9.776,2.984 9.727,2.847 9.536,2.736 6.704,1.105 3.969,-0.755 1.361,-2.844 -0.036,-1.092 -1.433,0.66 -2.831,2.412 0.045,4.715 3.059,6.766 6.181,8.563 6.392,8.686 6.546,8.662 6.64,8.496 6.734,8.33 6.677,8.187 6.467,8.066 3.58,6.403 0.785,4.522 -1.892,2.424 -1.379,1.767 -0.866,1.109 -0.353,0.452 2.231,2.478 4.928,4.294 7.715,5.898 7.917,6.016 8.066,5.988 8.161,5.823 8.255,5.657 8.202,5.517 8.001,5.401 5.237,3.81 2.563,2.009 0,0 Z"
         style="fill:none;stroke:#ffffff;stroke-width:0.85399997;stroke-linecap:butt;stroke-linejoin:miter;stroke-miterlimit:10;stroke-dasharray:none;stroke-opacity:1"
         id="path522"
         inkscape:connector-curvature="0" />
    </g>
    <g
       id="g524"
       transform="matrix(0.35277777,0,0,-0.35277777,64.516298,31.104882)">
      <path
         d="m 0,0 c 0.06,-0.183 -0.023,-0.311 -0.249,-0.385 -1.497,-0.499 -2.98,-1.048 -4.447,-1.648 0.742,-1.808 1.484,-3.615 2.226,-5.423 0.072,-0.177 0.007,-0.308 -0.194,-0.391 -0.202,-0.084 -0.339,-0.038 -0.414,0.139 -0.76,1.8 -1.52,3.601 -2.279,5.4 -1.463,-0.614 -2.909,-1.28 -4.334,-1.996 -0.215,-0.107 -0.366,-0.077 -0.453,0.094 -0.086,0.169 -0.022,0.31 0.195,0.419 3.092,1.552 6.273,2.868 9.518,3.949 C -0.204,0.234 -0.06,0.181 0,0"
         style="fill:#ffffff;fill-opacity:1;fill-rule:nonzero;stroke:none"
         id="path526"
         inkscape:connector-curvature="0" />
    </g>
    <g
       id="g528"
       transform="matrix(0.35277777,0,0,-0.35277777,64.516298,31.104882)">
      <path
         d="m 0,0 c 0.06,-0.183 -0.023,-0.311 -0.249,-0.385 -1.497,-0.499 -2.98,-1.048 -4.447,-1.648 0.742,-1.808 1.484,-3.615 2.226,-5.423 0.072,-0.177 0.007,-0.308 -0.194,-0.391 -0.202,-0.084 -0.339,-0.038 -0.414,0.139 -0.76,1.8 -1.52,3.601 -2.279,5.4 -1.463,-0.614 -2.909,-1.28 -4.334,-1.996 -0.215,-0.107 -0.366,-0.077 -0.453,0.094 -0.086,0.169 -0.022,0.31 0.195,0.419 3.092,1.552 6.273,2.868 9.518,3.949 C -0.204,0.234 -0.06,0.181 0,0 Z"
         style="fill:none;stroke:#ffffff;stroke-width:0.85399997;stroke-linecap:butt;stroke-linejoin:miter;stroke-miterlimit:10;stroke-dasharray:none;stroke-opacity:1"
         id="path530"
         inkscape:connector-curvature="0" />
    </g>
    <g
       id="g532"
       transform="matrix(0.35277777,0,0,-0.35277777,65.511944,30.508511)">
      <path
         d="M 0,0 C 0.579,0.162 1.16,0.316 1.742,0.464 1.85,0.04 1.958,-0.384 2.066,-0.808 1.878,-1.215 1.695,-1.622 1.517,-2.029 1.248,-2.102 0.979,-2.174 0.71,-2.249 0.789,-1.865 0.87,-1.482 0.953,-1.099 0.753,-1.152 0.555,-1.207 0.355,-1.263 0.237,-0.842 0.119,-0.421 0,0"
         style="fill:#ffffff;fill-opacity:1;fill-rule:nonzero;stroke:none"
         id="path534"
         inkscape:connector-curvature="0" />
    </g>
    <g
       id="g536"
       transform="matrix(0.35277777,0,0,-0.35277777,65.511944,30.508511)">
      <path
         d="M 0,0 C 0.579,0.162 1.16,0.316 1.742,0.464 1.85,0.04 1.958,-0.384 2.066,-0.808 1.878,-1.215 1.695,-1.622 1.517,-2.029 1.248,-2.102 0.979,-2.174 0.71,-2.249 0.789,-1.865 0.87,-1.482 0.953,-1.099 0.753,-1.152 0.555,-1.207 0.355,-1.263 0.237,-0.842 0.119,-0.421 0,0 Z"
         style="fill:none;stroke:#ffffff;stroke-width:0.85399997;stroke-linecap:butt;stroke-linejoin:miter;stroke-miterlimit:10;stroke-dasharray:none;stroke-opacity:1"
         id="path538"
         inkscape:connector-curvature="0" />
    </g>
    <g
       id="g540"
       transform="matrix(0.35277777,0,0,-0.35277777,67.817063,31.632321)">
      <path
         d="m 0,0 c 0.22,0.042 0.349,-0.03 0.384,-0.219 0.1,-0.517 0.617,-0.877 1.533,-1.107 0.916,-0.233 1.943,-0.269 3.103,-0.125 1.26,0.155 2.28,0.363 3.068,0.657 0.789,0.292 1.179,0.613 1.158,0.981 C 9.223,0.583 8.882,0.858 8.214,1.003 7.726,1.11 6.744,1.196 5.261,1.199 5.054,1.199 4.848,1.198 4.641,1.196 4.45,1.197 4.259,1.196 4.068,1.196 2.458,1.187 1.404,1.17 0.916,1.224 -0.105,1.339 -0.687,1.697 -0.816,2.334 -0.94,2.941 -0.477,3.521 0.601,4.039 1.497,4.467 2.705,4.796 4.216,4.984 5.736,5.172 7.05,5.045 8.125,4.638 9.2,4.229 9.739,3.656 9.773,2.955 9.782,2.764 9.672,2.663 9.445,2.651 9.216,2.639 9.096,2.728 9.085,2.918 9.055,3.442 8.574,3.873 7.622,4.185 6.671,4.493 5.551,4.581 4.286,4.425 2.913,4.255 1.811,3.963 0.989,3.587 0.167,3.209 -0.201,2.829 -0.132,2.468 -0.058,2.085 0.355,1.864 1.101,1.786 1.601,1.734 2.595,1.748 4.078,1.765 4.483,1.77 4.888,1.771 5.292,1.77 6.852,1.768 7.899,1.669 8.44,1.543 9.393,1.319 9.876,0.87 9.907,0.223 9.937,-0.398 9.428,-0.89 8.405,-1.284 7.554,-1.612 6.453,-1.842 5.09,-2.01 3.72,-2.18 2.534,-2.126 1.499,-1.82 0.466,-1.517 -0.134,-1.038 -0.274,-0.348 -0.312,-0.159 -0.221,-0.044 0,0"
         style="fill:#ffffff;fill-opacity:1;fill-rule:nonzero;stroke:none"
         id="path542"
         inkscape:connector-curvature="0" />
    </g>
    <g
       id="g544"
       transform="matrix(0.35277777,0,0,-0.35277777,67.817063,31.632321)">
      <path
         d="m 0,0 c 0.22,0.042 0.349,-0.03 0.384,-0.219 0.1,-0.517 0.617,-0.877 1.533,-1.107 0.916,-0.233 1.943,-0.269 3.103,-0.125 1.26,0.155 2.28,0.363 3.068,0.657 0.789,0.292 1.179,0.613 1.158,0.981 C 9.223,0.583 8.882,0.858 8.214,1.003 7.726,1.11 6.744,1.196 5.261,1.199 5.054,1.199 4.848,1.198 4.641,1.196 4.45,1.197 4.259,1.196 4.068,1.196 2.458,1.187 1.404,1.17 0.916,1.224 -0.105,1.339 -0.687,1.697 -0.816,2.334 -0.94,2.941 -0.477,3.521 0.601,4.039 1.497,4.467 2.705,4.796 4.216,4.984 5.736,5.172 7.05,5.045 8.125,4.638 9.2,4.229 9.739,3.656 9.773,2.955 9.782,2.764 9.672,2.663 9.445,2.651 9.216,2.639 9.096,2.728 9.085,2.918 9.055,3.442 8.574,3.873 7.622,4.185 6.671,4.493 5.551,4.581 4.286,4.425 2.913,4.255 1.811,3.963 0.989,3.587 0.167,3.209 -0.201,2.829 -0.132,2.468 -0.058,2.085 0.355,1.864 1.101,1.786 1.601,1.734 2.595,1.748 4.078,1.765 4.483,1.77 4.888,1.771 5.292,1.77 6.852,1.768 7.899,1.669 8.44,1.543 9.393,1.319 9.876,0.87 9.907,0.223 9.937,-0.398 9.428,-0.89 8.405,-1.284 7.554,-1.612 6.453,-1.842 5.09,-2.01 3.72,-2.18 2.534,-2.126 1.499,-1.82 0.466,-1.517 -0.134,-1.038 -0.274,-0.348 -0.312,-0.159 -0.221,-0.044 0,0 Z"
         style="fill:none;stroke:#ffffff;stroke-width:0.85399997;stroke-linecap:butt;stroke-linejoin:miter;stroke-miterlimit:10;stroke-dasharray:none;stroke-opacity:1"
         id="path546"
         inkscape:connector-curvature="0" />
    </g>
    <g
       id="g548"
       transform="matrix(0.35277777,0,0,-0.35277777,78.037951,30.9891)">
      <path
         d="M 0,0 C -0.076,-0.032 -0.158,-0.037 -0.246,-0.018 -0.343,0.004 -0.417,0.052 -0.469,0.126 -0.823,0.638 -1.333,1.087 -2.001,1.464 -2.668,1.84 -3.42,2.099 -4.246,2.23 -5.588,2.447 -6.784,2.307 -7.792,1.836 c -1.01,-0.473 -1.536,-1.129 -1.61,-1.937 -0.075,-0.81 0.318,-1.542 1.141,-2.216 0.824,-0.677 1.835,-1.1 3.067,-1.297 0.757,-0.122 1.485,-0.13 2.194,-0.02 0.708,0.11 1.321,0.32 1.838,0.639 0.075,0.046 0.16,0.059 0.252,0.039 0.085,-0.019 0.154,-0.06 0.205,-0.12 0.128,-0.149 0.105,-0.279 -0.066,-0.395 -0.578,-0.366 -1.264,-0.603 -2.062,-0.723 -0.797,-0.12 -1.61,-0.112 -2.451,0.023 -1.388,0.223 -2.526,0.701 -3.456,1.472 -0.956,0.794 -1.42,1.669 -1.339,2.657 0.08,0.985 0.69,1.784 1.872,2.355 1.146,0.552 2.513,0.721 4.052,0.474 0.932,-0.15 1.786,-0.444 2.546,-0.873 C -0.848,1.484 -0.274,0.97 0.114,0.384 0.227,0.204 0.188,0.076 0,0"
         style="fill:#ffffff;fill-opacity:1;fill-rule:nonzero;stroke:none"
         id="path550"
         inkscape:connector-curvature="0" />
    </g>
    <g
       id="g552"
       transform="matrix(0.35277777,0,0,-0.35277777,78.037951,30.9891)">
      <path
         d="M 0,0 C -0.076,-0.032 -0.158,-0.037 -0.246,-0.018 -0.343,0.004 -0.417,0.052 -0.469,0.126 -0.823,0.638 -1.333,1.087 -2.001,1.464 -2.668,1.84 -3.42,2.099 -4.246,2.23 -5.588,2.447 -6.784,2.307 -7.792,1.836 c -1.01,-0.473 -1.536,-1.129 -1.61,-1.937 -0.075,-0.81 0.318,-1.542 1.141,-2.216 0.824,-0.677 1.835,-1.1 3.067,-1.297 0.757,-0.122 1.485,-0.13 2.194,-0.02 0.708,0.11 1.321,0.32 1.838,0.639 0.075,0.046 0.16,0.059 0.252,0.039 0.085,-0.019 0.154,-0.06 0.205,-0.12 0.128,-0.149 0.105,-0.279 -0.066,-0.395 -0.578,-0.366 -1.264,-0.603 -2.062,-0.723 -0.797,-0.12 -1.61,-0.112 -2.451,0.023 -1.388,0.223 -2.526,0.701 -3.456,1.472 -0.956,0.794 -1.42,1.669 -1.339,2.657 0.08,0.985 0.69,1.784 1.872,2.355 1.146,0.552 2.513,0.721 4.052,0.474 0.932,-0.15 1.786,-0.444 2.546,-0.873 C -0.848,1.484 -0.274,0.97 0.114,0.384 0.227,0.204 0.188,0.076 0,0 Z"
         style="fill:none;stroke:#ffffff;stroke-width:0.85399997;stroke-linecap:butt;stroke-linejoin:miter;stroke-miterlimit:10;stroke-dasharray:none;stroke-opacity:1"
         id="path554"
         inkscape:connector-curvature="0" />
    </g>
    <g
       id="g556"
       transform="matrix(0.35277777,0,0,-0.35277777,82.312631,33.269419)">
      <path
         d="M 0,0 C -0.594,1.496 -1.25,2.987 -1.969,4.47 -3.46,3.841 -4.91,3.165 -6.313,2.446 -4.177,1.739 -2.07,0.924 0,0 M 1.811,-3.458 C 1.728,-3.622 1.591,-3.657 1.402,-3.563 1.311,-3.518 1.249,-3.448 1.216,-3.356 0.925,-2.489 0.614,-1.623 0.283,-0.759 -2.108,0.333 -4.55,1.278 -7.031,2.076 -7.832,1.652 -8.618,1.215 -9.389,0.763 -9.468,0.715 -9.551,0.703 -9.64,0.729 c -0.216,0.062 -0.297,0.188 -0.243,0.378 0.018,0.066 0.057,0.116 0.115,0.149 2.539,1.501 5.245,2.856 8.106,4.04 1.385,-2.823 2.547,-5.681 3.487,-8.542 0.025,-0.073 0.02,-0.146 -0.014,-0.212"
         style="fill:#ffffff;fill-opacity:1;fill-rule:nonzero;stroke:none"
         id="path558"
         inkscape:connector-curvature="0" />
    </g>
    <g
       id="g560"
       transform="matrix(0.35277777,0,0,-0.35277777,82.312631,33.269419)">
      <path
         d="M 0,0 C -0.594,1.496 -1.25,2.987 -1.969,4.47 -3.46,3.841 -4.91,3.165 -6.313,2.446 -4.177,1.739 -2.07,0.924 0,0 Z M 1.811,-3.458 C 1.728,-3.622 1.591,-3.657 1.402,-3.563 1.311,-3.518 1.249,-3.448 1.216,-3.356 0.925,-2.489 0.614,-1.623 0.283,-0.759 -2.108,0.333 -4.55,1.278 -7.031,2.076 -7.832,1.652 -8.618,1.215 -9.389,0.763 -9.468,0.715 -9.551,0.703 -9.64,0.729 c -0.216,0.062 -0.297,0.188 -0.243,0.378 0.018,0.066 0.057,0.116 0.115,0.149 2.539,1.501 5.245,2.856 8.106,4.04 1.385,-2.823 2.547,-5.681 3.487,-8.542 0.025,-0.073 0.02,-0.146 -0.014,-0.212 z"
         style="fill:none;stroke:#ffffff;stroke-width:0.85399997;stroke-linecap:butt;stroke-linejoin:miter;stroke-miterlimit:10;stroke-dasharray:none;stroke-opacity:1"
         id="path562"
         inkscape:connector-curvature="0" />
    </g>
    <g
       id="g564"
       transform="matrix(0.35277777,0,0,-0.35277777,84.596056,34.440079)">
      <path
         d="m 0,0 c 2.03,-1.183 4.011,-2.479 5.933,-3.89 0.477,-0.35 0.984,-0.517 1.531,-0.504 0.547,0.015 0.973,0.207 1.271,0.59 0.298,0.382 0.383,0.845 0.244,1.388 C 8.838,-1.873 8.516,-1.413 8.014,-1.044 5.992,0.439 3.909,1.803 1.774,3.047 1.183,2.031 0.592,1.016 0,0 M 6.746,-7.457 C 6.712,-7.5 6.663,-7.527 6.603,-7.539 6.497,-7.568 6.396,-7.546 6.302,-7.471 6.251,-7.431 6.215,-7.379 6.191,-7.317 5.674,-6.062 5.113,-4.813 4.508,-3.573 2.944,-2.474 1.344,-1.447 -0.289,-0.496 -0.585,-1.004 -0.88,-1.512 -1.176,-2.02 -1.272,-2.185 -1.417,-2.212 -1.607,-2.102 -1.799,-1.991 -1.848,-1.854 -1.753,-1.687 -0.692,0.178 0.369,2.043 1.43,3.907 3.803,2.557 6.115,1.061 8.352,-0.581 9.029,-1.077 9.463,-1.695 9.645,-2.413 9.827,-3.133 9.706,-3.745 9.302,-4.252 8.9,-4.755 8.335,-5.005 7.616,-5.022 6.895,-5.041 6.227,-4.817 5.594,-4.354 5.567,-4.334 5.541,-4.314 5.514,-4.295 5.961,-5.253 6.382,-6.215 6.778,-7.182 6.82,-7.285 6.81,-7.377 6.746,-7.457"
         style="fill:#ffffff;fill-opacity:1;fill-rule:nonzero;stroke:none"
         id="path566"
         inkscape:connector-curvature="0" />
    </g>
    <g
       id="g568"
       transform="matrix(0.35277777,0,0,-0.35277777,84.596056,34.440079)">
      <path
         d="m 0,0 c 2.03,-1.183 4.011,-2.479 5.933,-3.89 0.477,-0.35 0.984,-0.517 1.531,-0.504 0.547,0.015 0.973,0.207 1.271,0.59 0.298,0.382 0.383,0.845 0.244,1.388 C 8.838,-1.873 8.516,-1.413 8.014,-1.044 5.992,0.439 3.909,1.803 1.774,3.047 1.183,2.031 0.592,1.016 0,0 Z M 6.746,-7.457 C 6.712,-7.5 6.663,-7.527 6.603,-7.539 6.497,-7.568 6.396,-7.546 6.302,-7.471 6.251,-7.431 6.215,-7.379 6.191,-7.317 5.674,-6.062 5.113,-4.813 4.508,-3.573 2.944,-2.474 1.344,-1.447 -0.289,-0.496 -0.585,-1.004 -0.88,-1.512 -1.176,-2.02 -1.272,-2.185 -1.417,-2.212 -1.607,-2.102 -1.799,-1.991 -1.848,-1.854 -1.753,-1.687 -0.692,0.178 0.369,2.043 1.43,3.907 3.803,2.557 6.115,1.061 8.352,-0.581 9.029,-1.077 9.463,-1.695 9.645,-2.413 9.827,-3.133 9.706,-3.745 9.302,-4.252 8.9,-4.755 8.335,-5.005 7.616,-5.022 6.895,-5.041 6.227,-4.817 5.594,-4.354 5.567,-4.334 5.541,-4.314 5.514,-4.295 5.961,-5.253 6.382,-6.215 6.778,-7.182 6.82,-7.285 6.81,-7.377 6.746,-7.457 Z"
         style="fill:none;stroke:#ffffff;stroke-width:0.85399997;stroke-linecap:butt;stroke-linejoin:miter;stroke-miterlimit:10;stroke-dasharray:none;stroke-opacity:1"
         id="path570"
         inkscape:connector-curvature="0" />
    </g>
    <g
       id="g572"
       transform="matrix(0.35277777,0,0,-0.35277777,88.734457,37.279868)">
      <path
         d="M 0,0 C -0.559,-0.618 -1.118,-1.236 -1.677,-1.854 0.676,-3.993 2.909,-6.333 5,-8.874 5.151,-9.059 5.152,-9.212 5.004,-9.332 4.855,-9.453 4.707,-9.422 4.557,-9.239 2.334,-6.537 -0.051,-4.065 -2.572,-1.821 -1.086,-0.145 0.399,1.532 1.885,3.21 4.664,0.736 7.293,-1.989 9.744,-4.968 9.909,-5.169 9.917,-5.331 9.77,-5.451 9.621,-5.572 9.465,-5.531 9.301,-5.332 7.035,-2.577 4.614,-0.04 2.063,2.279 1.503,1.661 0.944,1.043 0.385,0.425 2.847,-1.813 5.184,-4.262 7.372,-6.921 7.53,-7.113 7.535,-7.271 7.387,-7.392 7.238,-7.512 7.086,-7.477 6.929,-7.285 4.759,-4.648 2.442,-2.221 0,0"
         style="fill:#ffffff;fill-opacity:1;fill-rule:nonzero;stroke:none"
         id="path574"
         inkscape:connector-curvature="0" />
    </g>
    <g
       id="g576"
       transform="matrix(0.35277777,0,0,-0.35277777,88.734457,37.279868)">
      <path
         d="M 0,0 C -0.559,-0.618 -1.118,-1.236 -1.677,-1.854 0.676,-3.993 2.909,-6.333 5,-8.874 5.151,-9.059 5.152,-9.212 5.004,-9.332 4.855,-9.453 4.707,-9.422 4.557,-9.239 2.334,-6.537 -0.051,-4.065 -2.572,-1.821 -1.086,-0.145 0.399,1.532 1.885,3.21 4.664,0.736 7.293,-1.989 9.744,-4.968 9.909,-5.169 9.917,-5.331 9.77,-5.451 9.621,-5.572 9.465,-5.531 9.301,-5.332 7.035,-2.577 4.614,-0.04 2.063,2.279 1.503,1.661 0.944,1.043 0.385,0.425 2.847,-1.813 5.184,-4.262 7.372,-6.921 7.53,-7.113 7.535,-7.271 7.387,-7.392 7.238,-7.512 7.086,-7.477 6.929,-7.285 4.759,-4.648 2.442,-2.221 0,0 Z"
         style="fill:none;stroke:#ffffff;stroke-width:0.85399997;stroke-linecap:butt;stroke-linejoin:miter;stroke-miterlimit:10;stroke-dasharray:none;stroke-opacity:1"
         id="path578"
         inkscape:connector-curvature="0" />
    </g>
    <text
       y="83.44722"
       x="36.608612"
       style="font-variant:normal;font-weight:normal;font-stretch:normal;font-size:11.04762363px;font-family:'Alfa Slab One';-inkscape-font-specification:AlfaSlabOne-Regular;writing-mode:lr-tb;fill:#58595b;fill-opacity:1;fill-rule:nonzero;stroke:none;stroke-width:0.35277775"
       id="text582">
      <tspan
         style="stroke-width:0.35277775"
         x="36.608612 44.39719 52.992237 61.775097 70.767868 74.082153 81.163681 89.979691 98.729401"
         y="83.44722"
         sodipodi:role="line"
         id="tspan580">YOUR LOGO</tspan>
    </text>
  </g>
</svg>
