<svg xmlns="http://www.w3.org/2000/svg" xmlns:xlink="http://www.w3.org/1999/xlink" viewBox="0 0 43.76 52.89"><defs><style>.cls-1{fill:url(#radial-gradient);}.cls-2{fill:none;}.cls-3{fill:#8dacc9;}.cls-4{clip-path:url(#clip-path);}.cls-5{mask:url(#mask);}.cls-6{fill:url(#radial-gradient-2);}</style><radialGradient id="radial-gradient" cx="1428.42" cy="-1176.18" r="0.25" gradientTransform="translate(-117298.78 16317.08) scale(82.13 13.83)" gradientUnits="userSpaceOnUse"><stop offset="0" stop-color="gray"/><stop offset="0.13" stop-color="#5f5f5f"/><stop offset="0.3" stop-color="#3d3d3d"/><stop offset="0.47" stop-color="#222"/><stop offset="0.64" stop-color="#0f0f0f"/><stop offset="0.81" stop-color="#040404"/><stop offset="1"/></radialGradient><clipPath id="clip-path"><rect class="cls-2" x="0.83" y="45.8" width="42.1" height="7.09"/></clipPath><mask id="mask" x="0.83" y="45.8" width="42.1" height="7.09" maskUnits="userSpaceOnUse"><rect class="cls-1" x="0.83" y="45.8" width="42.1" height="7.09"/></mask><radialGradient id="radial-gradient-2" cx="1428.42" cy="-1176.18" r="0.25" gradientTransform="translate(-117298.78 16317.08) scale(82.13 13.83)" gradientUnits="userSpaceOnUse"><stop offset="0" stop-color="#6087c4"/><stop offset="0" stop-color="#6087c4"/><stop offset="0.32" stop-color="#689ad2"/><stop offset="0.65" stop-color="#6ca5da"/><stop offset="1" stop-color="#6ea9dd"/></radialGradient></defs><title>Comercios</title><g id="Capa_2" data-name="Capa 2"><g id="Layer_2" data-name="Layer 2"><path class="cls-3" d="M6.67,24.45V42.12a1.84,1.84,0,0,0,1,1.35,2.15,2.15,0,0,0,1.15.21h8.07a1.34,1.34,0,0,0,.78-.21,1.2,1.2,0,0,0,.18-.77V34.24h8.1V42.7a1.12,1.12,0,0,0,.2.77,1,1,0,0,0,.77.21H35a2.2,2.2,0,0,0,1.15-.21,1.38,1.38,0,0,0,.77-1.35V24.45l-15-13.65ZM7.24,0,19.57.58,6.47,12.52ZM42.86,19.63,23.81,2.33a3,3,0,0,0-3.85,0L.89,19.63a3,3,0,0,0-.2,4h0a3.06,3.06,0,0,0,2.12,1,3.93,3.93,0,0,0,1.93-.77L21.87,8.28,39,23.87a2.86,2.86,0,1,0,3.83-4.23Z"/><g class="cls-4"><g class="cls-5"><rect class="cls-6" x="0.83" y="45.8" width="42.1" height="7.09"/></g></g></g></g></svg>