<svg xmlns="http://www.w3.org/2000/svg" viewBox="0 0 43.76 43.69"><defs><style>.cls-1{fill:#fff;}</style></defs><title>Commerce White</title><g id="Capa_2" data-name="Capa 2"><g id="Layer_2" data-name="Layer 2"><path class="cls-1" d="M6.67,24.45V42.12a1.84,1.84,0,0,0,1,1.35,2.15,2.15,0,0,0,1.15.21h8.07a1.34,1.34,0,0,0,.78-.21,1.2,1.2,0,0,0,.18-.77V34.24h8.1V42.7a1.12,1.12,0,0,0,.2.77,1,1,0,0,0,.77.21H35a2.2,2.2,0,0,0,1.15-.21,1.38,1.38,0,0,0,.77-1.35V24.45l-15-13.65ZM7.24,0,19.57.58,6.47,12.52ZM42.86,19.63,23.81,2.33a3,3,0,0,0-3.85,0L.89,19.63a3,3,0,0,0-.2,4h0a3.06,3.06,0,0,0,2.12,1,3.93,3.93,0,0,0,1.93-.77L21.87,8.28,39,23.87a2.86,2.86,0,1,0,3.83-4.23Z"/></g></g></svg>