<svg xmlns="http://www.w3.org/2000/svg" xmlns:xlink="http://www.w3.org/1999/xlink" viewBox="0 0 42.1 53.5"><defs><style>.cls-1{fill:url(#radial-gradient);}.cls-2{fill:none;}.cls-3{fill:#8dacc9;fill-rule:evenodd;}.cls-4{clip-path:url(#clip-path);}.cls-5{mask:url(#mask);}.cls-6{fill:url(#radial-gradient-2);}</style><radialGradient id="radial-gradient" cx="1247.41" cy="-1176.39" r="0.25" gradientTransform="translate(-102432.71 16320.61) scale(82.13 13.83)" gradientUnits="userSpaceOnUse"><stop offset="0" stop-color="gray"/><stop offset="0.13" stop-color="#5f5f5f"/><stop offset="0.3" stop-color="#3d3d3d"/><stop offset="0.47" stop-color="#222"/><stop offset="0.64" stop-color="#0f0f0f"/><stop offset="0.81" stop-color="#040404"/><stop offset="1"/></radialGradient><clipPath id="clip-path"><rect class="cls-2" y="46.41" width="42.1" height="7.09"/></clipPath><mask id="mask" x="0" y="46.41" width="42.1" height="7.09" maskUnits="userSpaceOnUse"><rect class="cls-1" y="46.41" width="42.1" height="7.09"/></mask><radialGradient id="radial-gradient-2" cx="1247.41" cy="-1176.39" r="0.25" gradientTransform="translate(-102432.71 16320.61) scale(82.13 13.83)" gradientUnits="userSpaceOnUse"><stop offset="0" stop-color="#6087c4"/><stop offset="0" stop-color="#6087c4"/><stop offset="0.32" stop-color="#689ad2"/><stop offset="0.65" stop-color="#6ca5da"/><stop offset="1" stop-color="#6ea9dd"/></radialGradient></defs><title>Contacto</title><g id="Capa_2" data-name="Capa 2"><g id="Layer_2" data-name="Layer 2"><path class="cls-3" d="M9.52,3.39h4.27V2.21A2.19,2.19,0,0,1,14.54.6,2.32,2.32,0,0,1,16.13,0H26a2.35,2.35,0,0,1,1.56.6,2.46,2.46,0,0,1,.62,1.61V3.39h4.27a4.65,4.65,0,0,1,3.31,1.37,4.54,4.54,0,0,1,1.32,3.3V42.57a.78.78,0,0,1-.72.75H5.73A.79.79,0,0,1,5,42.57V8.06a4.42,4.42,0,0,1,1.36-3.3A4.5,4.5,0,0,1,9.52,3.39Zm2.47,10h0a.83.83,0,0,1-.75-.87.78.78,0,0,1,.75-.72H30a.8.8,0,0,1,.84.72.84.84,0,0,1-.84.87Zm0,7.81h0a.73.73,0,0,1-.75-.74.78.78,0,0,1,.75-.72H30a.8.8,0,0,1,.84.72.75.75,0,0,1-.84.74Zm0,7.93h0a.74.74,0,1,1,0-1.48H30a.75.75,0,1,1,0,1.48Zm9,7.42h0a.8.8,0,0,1-.71-.84A.77.77,0,0,1,21,35H30a.8.8,0,0,1,.84.72.82.82,0,0,1-.84.84ZM15.38,3.39H26.74V2.21a1,1,0,0,0-.24-.49A.61.61,0,0,0,26,1.45H16.13a1.31,1.31,0,0,0-.63.27.75.75,0,0,0-.12.49ZM32.47,5h-23a2.65,2.65,0,0,0-2.07.86,2.86,2.86,0,0,0-1,2.19V41.85H35.54V8.06a3.31,3.31,0,0,0-.87-2.19A2.89,2.89,0,0,0,32.47,5Z"/><g class="cls-4"><g class="cls-5"><rect class="cls-6" y="46.41" width="42.1" height="7.09"/></g></g></g></g></svg>