<svg xmlns="http://www.w3.org/2000/svg" viewBox="0 0 32.09 43.33"><defs><style>.cls-1{fill:#fff;fill-rule:evenodd;}</style></defs><title>Contact White</title><g id="Capa_2" data-name="Capa 2"><g id="Layer_2" data-name="Layer 2"><path class="cls-1" d="M4.51,3.39H8.79V2.21A2.19,2.19,0,0,1,9.54.6,2.32,2.32,0,0,1,11.13,0H21a2.35,2.35,0,0,1,1.56.6,2.46,2.46,0,0,1,.62,1.61V3.39h4.27a4.65,4.65,0,0,1,3.31,1.37,4.54,4.54,0,0,1,1.32,3.3V42.57a.78.78,0,0,1-.72.75H.72A.79.79,0,0,1,0,42.57V8.06a4.42,4.42,0,0,1,1.36-3.3A4.5,4.5,0,0,1,4.51,3.39ZM7,13.43H7a.83.83,0,0,1-.75-.87A.78.78,0,0,1,7,11.84H25a.8.8,0,0,1,.84.72.84.84,0,0,1-.84.87Zm0,7.81H7a.73.73,0,0,1-.75-.74A.78.78,0,0,1,7,19.78H25a.8.8,0,0,1,.84.72.75.75,0,0,1-.84.74Zm0,7.93H7a.74.74,0,1,1,0-1.48H25a.75.75,0,1,1,0,1.48Zm9,7.42h0a.8.8,0,0,1-.71-.84A.77.77,0,0,1,16,35H25a.8.8,0,0,1,.84.72.82.82,0,0,1-.84.84ZM10.38,3.39H21.73V2.21a1,1,0,0,0-.24-.49A.61.61,0,0,0,21,1.45H11.13a1.31,1.31,0,0,0-.63.27.75.75,0,0,0-.12.49ZM27.46,5h-23a2.65,2.65,0,0,0-2.07.86,2.86,2.86,0,0,0-1,2.19V41.85H30.53V8.06a3.31,3.31,0,0,0-.87-2.19A2.89,2.89,0,0,0,27.46,5Z"/></g></g></svg>