<?xml version="1.0" encoding="UTF-8" standalone="no"?>
<!-- Created with Inkscape (http://www.inkscape.org/) -->

<svg
   xmlns:dc="http://purl.org/dc/elements/1.1/"
   xmlns:cc="http://creativecommons.org/ns#"
   xmlns:rdf="http://www.w3.org/1999/02/22-rdf-syntax-ns#"
   xmlns:svg="http://www.w3.org/2000/svg"
   xmlns="http://www.w3.org/2000/svg"
   xmlns:sodipodi="http://sodipodi.sourceforge.net/DTD/sodipodi-0.dtd"
   xmlns:inkscape="http://www.inkscape.org/namespaces/inkscape"
   width="98.602692mm"
   height="68.089851mm"
   viewBox="0 0 98.602692 68.089851"
   version="1.1"
   id="svg5835"
   inkscape:version="0.92.1 r15371"
   sodipodi:docname="Logo Popet White.svg">
  <defs
     id="defs5829">
    <clipPath
       clipPathUnits="userSpaceOnUse"
       id="clipPath5147">
      <path
         d="M 0,0 H 1920 V 2181.298 H 0 Z"
         id="path5145"
         inkscape:connector-curvature="0" />
    </clipPath>
  </defs>
  <sodipodi:namedview
     id="base"
     pagecolor="#ffffff"
     bordercolor="#666666"
     borderopacity="1.0"
     inkscape:pageopacity="0.0"
     inkscape:pageshadow="2"
     inkscape:zoom="0.35"
     inkscape:cx="-453.6642"
     inkscape:cy="-165.612"
     inkscape:document-units="mm"
     inkscape:current-layer="layer1"
     showgrid="false"
     inkscape:window-width="1366"
     inkscape:window-height="744"
     inkscape:window-x="0"
     inkscape:window-y="24"
     inkscape:window-maximized="1" />
  <metadata
     id="metadata5832">
    <rdf:RDF>
      <cc:Work
         rdf:about="">
        <dc:format>image/svg+xml</dc:format>
        <dc:type
           rdf:resource="http://purl.org/dc/dcmitype/StillImage" />
        <dc:title></dc:title>
      </cc:Work>
    </rdf:RDF>
  </metadata>
  <g
     inkscape:label="Capa 1"
     inkscape:groupmode="layer"
     id="layer1"
     transform="translate(-45.948654,-36.925311)">
    <g
       transform="matrix(0.35277777,0,0,-0.35277777,26.390972,782.87521)"
       id="g5141">
      <g
         id="g5143"
         clip-path="url(#clipPath5147)">
        <g
           id="g5149"
           transform="translate(68.0041,1995.5991)">
          <path
             d="m 0,0 c 0,-3.234 0.891,-6.137 2.675,-8.708 1.781,-2.571 4,-4.435 6.654,-5.597 1.16,-0.497 2.467,-1.471 3.919,-2.923 1.449,-1.453 2.217,-3.547 2.3,-6.283 0.083,2.736 0.829,4.83 2.239,6.283 1.408,1.452 2.694,2.426 3.857,2.923 2.736,1.162 4.995,3.026 6.779,5.597 1.782,2.571 2.675,5.474 2.675,8.708 0,2.156 -0.395,4.185 -1.184,6.096 -0.789,1.906 -1.887,3.563 -3.294,4.974 -1.412,1.409 -3.071,2.508 -4.976,3.296 -1.909,0.788 -3.941,1.184 -6.096,1.184 -2.157,0 -4.188,-0.396 -6.095,-1.184 C 7.544,13.578 5.887,12.479 4.478,11.07 3.067,9.659 1.968,8.002 1.182,6.096 0.392,4.185 0,2.156 0,0 M -12.315,-66.641 V -15.549 -2.24 9.329 20.773 c 0,1.991 0.725,3.688 2.177,5.101 1.45,1.408 3.171,2.113 5.163,2.113 1.326,0 2.713,-0.332 4.166,-0.994 1.449,-0.664 2.507,-1.576 3.172,-2.737 4.062,2.487 8.459,3.731 13.185,3.731 3.814,0 7.442,-0.728 10.885,-2.178 3.439,-1.451 6.424,-3.462 8.956,-6.03 2.527,-2.573 4.54,-5.558 6.033,-8.958 1.493,-3.4 2.239,-7.049 2.239,-10.946 0,-3.897 -0.746,-7.525 -2.239,-10.884 -1.493,-3.358 -3.506,-6.324 -6.033,-8.893 -2.532,-2.572 -5.517,-4.584 -8.956,-6.034 -3.443,-1.45 -7.071,-2.176 -10.885,-2.176 -4.562,0 -8.955,1.16 -13.185,3.483 v -42.012 c 0,-1.905 -0.747,-3.586 -2.238,-5.038 -1.493,-1.45 -3.234,-2.177 -5.225,-2.177 -1.91,0 -3.588,0.727 -5.038,2.177 -1.452,1.452 -2.177,3.133 -2.177,5.038"
             style="fill:#add9f4;fill-opacity:1;fill-rule:nonzero;stroke:none"
             id="path5151"
             inkscape:connector-curvature="0" />
        </g>
        <g
           id="g5153"
           transform="translate(68.0041,1995.5991)">
          <path
             d="m 0,0 c 0,-3.234 0.891,-6.137 2.675,-8.708 1.781,-2.571 4,-4.435 6.654,-5.597 1.16,-0.497 2.467,-1.471 3.919,-2.923 1.449,-1.453 2.217,-3.547 2.3,-6.283 0.083,2.736 0.829,4.83 2.239,6.283 1.408,1.452 2.694,2.426 3.857,2.923 2.736,1.162 4.995,3.026 6.779,5.597 1.782,2.571 2.675,5.474 2.675,8.708 0,2.156 -0.395,4.185 -1.184,6.096 -0.789,1.906 -1.887,3.563 -3.294,4.974 -1.412,1.409 -3.071,2.508 -4.976,3.296 -1.909,0.788 -3.941,1.184 -6.096,1.184 -2.157,0 -4.188,-0.396 -6.095,-1.184 C 7.544,13.578 5.887,12.479 4.478,11.07 3.067,9.659 1.968,8.002 1.182,6.096 0.392,4.185 0,2.156 0,0 M -12.315,-66.641 V -15.549 -2.24 9.329 20.773 c 0,1.991 0.725,3.688 2.177,5.101 1.45,1.408 3.171,2.113 5.163,2.113 1.326,0 2.713,-0.332 4.166,-0.994 1.449,-0.664 2.507,-1.576 3.172,-2.737 4.062,2.487 8.459,3.731 13.185,3.731 3.814,0 7.442,-0.728 10.885,-2.178 3.439,-1.451 6.424,-3.462 8.956,-6.03 2.527,-2.573 4.54,-5.558 6.033,-8.958 1.493,-3.4 2.239,-7.049 2.239,-10.946 0,-3.897 -0.746,-7.525 -2.239,-10.884 -1.493,-3.358 -3.506,-6.324 -6.033,-8.893 -2.532,-2.572 -5.517,-4.584 -8.956,-6.034 -3.443,-1.45 -7.071,-2.176 -10.885,-2.176 -4.562,0 -8.955,1.16 -13.185,3.483 v -42.012 c 0,-1.905 -0.747,-3.586 -2.238,-5.038 -1.493,-1.45 -3.234,-2.177 -5.225,-2.177 -1.91,0 -3.588,0.727 -5.038,2.177 -1.452,1.452 -2.177,3.133 -2.177,5.038"
             style="fill:#ffffff;fill-opacity:1;fill-rule:nonzero;stroke:#7eaecc;stroke-width:0.5;stroke-linecap:butt;stroke-linejoin:miter;stroke-miterlimit:10;stroke-dasharray:none;stroke-opacity:1"
             id="path5155"
             inkscape:connector-curvature="0" />
        </g>
        <g
           id="g5157"
           transform="translate(129.0793,1995.5991)">
          <path
             d="m 0,0 c 0,-3.234 0.89,-6.137 2.675,-8.708 1.781,-2.571 3.999,-4.435 6.654,-5.597 1.159,-0.497 2.467,-1.471 3.918,-2.923 1.449,-1.453 2.218,-3.547 2.3,-6.283 0.082,2.736 0.828,4.83 2.24,6.283 1.409,1.452 2.693,2.426 3.857,2.923 2.734,1.162 4.994,3.026 6.777,5.597 1.784,2.571 2.676,5.474 2.676,8.708 0,2.156 -0.394,4.185 -1.182,6.096 -0.788,1.906 -1.888,3.563 -3.296,4.974 -1.411,1.409 -3.069,2.508 -4.975,3.296 -1.91,0.788 -3.942,1.184 -6.097,1.184 -2.157,0 -4.188,-0.396 -6.093,-1.184 C 7.543,13.578 5.887,12.479 4.478,11.07 3.066,9.659 1.969,8.002 1.182,6.096 0.392,4.185 0,2.156 0,0 m -12.438,0 c 0,3.813 0.723,7.421 2.174,10.821 1.451,3.4 3.463,6.385 6.035,8.958 2.569,2.568 5.536,4.579 8.892,6.03 3.358,1.45 6.985,2.178 10.884,2.178 3.815,0 7.422,-0.728 10.823,-2.178 3.4,-1.451 6.384,-3.462 8.956,-6.03 2.57,-2.573 4.581,-5.558 6.032,-8.958 1.452,-3.4 2.178,-7.008 2.178,-10.821 0,-3.899 -0.726,-7.526 -2.178,-10.884 -1.451,-3.359 -3.462,-6.327 -6.032,-8.895 -2.572,-2.569 -5.556,-4.584 -8.956,-6.032 -3.401,-1.452 -7.008,-2.178 -10.823,-2.178 -3.899,0 -7.526,0.726 -10.884,2.178 -3.356,1.448 -6.323,3.463 -8.892,6.032 -2.572,2.568 -4.584,5.536 -6.035,8.895 -1.451,3.358 -2.174,6.985 -2.174,10.884"
             style="fill:#add9f4;fill-opacity:1;fill-rule:nonzero;stroke:none"
             id="path5159"
             inkscape:connector-curvature="0" />
        </g>
        <g
           id="g5161"
           transform="translate(129.0793,1995.5991)">
          <path
             d="m 0,0 c 0,-3.234 0.89,-6.137 2.675,-8.708 1.781,-2.571 3.999,-4.435 6.654,-5.597 1.159,-0.497 2.467,-1.471 3.918,-2.923 1.449,-1.453 2.218,-3.547 2.3,-6.283 0.082,2.736 0.828,4.83 2.24,6.283 1.409,1.452 2.693,2.426 3.857,2.923 2.734,1.162 4.994,3.026 6.777,5.597 1.784,2.571 2.676,5.474 2.676,8.708 0,2.156 -0.394,4.185 -1.182,6.096 -0.788,1.906 -1.888,3.563 -3.296,4.974 -1.411,1.409 -3.069,2.508 -4.975,3.296 -1.91,0.788 -3.942,1.184 -6.097,1.184 -2.157,0 -4.188,-0.396 -6.093,-1.184 C 7.543,13.578 5.887,12.479 4.478,11.07 3.066,9.659 1.969,8.002 1.182,6.096 0.392,4.185 0,2.156 0,0 m -12.438,0 c 0,3.813 0.723,7.421 2.174,10.821 1.451,3.4 3.463,6.385 6.035,8.958 2.569,2.568 5.536,4.579 8.892,6.03 3.358,1.45 6.985,2.178 10.884,2.178 3.815,0 7.422,-0.728 10.823,-2.178 3.4,-1.451 6.384,-3.462 8.956,-6.03 2.57,-2.573 4.581,-5.558 6.032,-8.958 1.452,-3.4 2.178,-7.008 2.178,-10.821 0,-3.899 -0.726,-7.526 -2.178,-10.884 -1.451,-3.359 -3.462,-6.327 -6.032,-8.895 -2.572,-2.569 -5.556,-4.584 -8.956,-6.032 -3.401,-1.452 -7.008,-2.178 -10.823,-2.178 -3.899,0 -7.526,0.726 -10.884,2.178 -3.356,1.448 -6.323,3.463 -8.892,6.032 -2.572,2.568 -4.584,5.536 -6.035,8.895 -1.451,3.358 -2.174,6.985 -2.174,10.884"
             style="fill:#ffffff;fill-opacity:1;fill-rule:nonzero;stroke:#7eaecc;stroke-width:0.5;stroke-linecap:butt;stroke-linejoin:miter;stroke-miterlimit:10;stroke-dasharray:none;stroke-opacity:1"
             id="path5163"
             inkscape:connector-curvature="0" />
        </g>
        <g
           id="g5165"
           transform="translate(190.0294,1995.5991)">
          <path
             d="m 0,0 c 0,-3.234 0.891,-6.137 2.674,-8.708 1.781,-2.571 4,-4.435 6.655,-5.597 1.158,-0.497 2.466,-1.471 3.919,-2.923 1.45,-1.453 2.216,-3.547 2.299,-6.283 0.083,2.736 0.828,4.83 2.24,6.283 1.409,1.452 2.693,2.426 3.856,2.923 2.737,1.162 4.996,3.026 6.779,5.597 1.782,2.571 2.675,5.474 2.675,8.708 0,2.156 -0.395,4.185 -1.183,6.096 -0.789,1.906 -1.887,3.563 -3.296,4.974 -1.409,1.409 -3.068,2.508 -4.975,3.296 -1.909,0.788 -3.941,1.184 -6.096,1.184 -2.157,0 -4.187,-0.396 -6.093,-1.184 C 7.544,13.578 5.888,12.479 4.478,11.07 3.067,9.659 1.969,8.002 1.181,6.096 0.392,4.185 0,2.156 0,0 M -12.316,-66.641 V -15.549 -2.24 9.329 20.773 c 0,1.991 0.726,3.688 2.177,5.101 1.451,1.408 3.171,2.113 5.164,2.113 1.325,0 2.714,-0.332 4.166,-0.994 1.45,-0.664 2.506,-1.576 3.171,-2.737 4.063,2.487 8.46,3.731 13.185,3.731 3.814,0 7.444,-0.728 10.885,-2.178 3.44,-1.451 6.426,-3.462 8.956,-6.03 2.528,-2.573 4.54,-5.558 6.035,-8.958 1.491,-3.4 2.237,-7.049 2.237,-10.946 0,-3.897 -0.746,-7.525 -2.237,-10.884 -1.495,-3.358 -3.507,-6.324 -6.035,-8.893 -2.53,-2.572 -5.516,-4.584 -8.956,-6.034 -3.441,-1.45 -7.071,-2.176 -10.885,-2.176 -4.561,0 -8.955,1.16 -13.185,3.483 v -42.012 c 0,-1.905 -0.746,-3.586 -2.238,-5.038 -1.493,-1.45 -3.234,-2.177 -5.224,-2.177 -1.911,0 -3.588,0.727 -5.039,2.177 -1.451,1.452 -2.177,3.133 -2.177,5.038"
             style="fill:#ffffff;fill-opacity:1;fill-rule:nonzero;stroke:none"
             id="path5167"
             inkscape:connector-curvature="0" />
        </g>
        <g
           id="g5169"
           transform="translate(251.1046,1997.5878)">
          <path
             d="m 0,0 h 4.29 5.535 8.397 12.874 c -0.249,1.908 -0.829,3.712 -1.741,5.41 -0.914,1.701 -2.051,3.175 -3.42,4.418 -1.369,1.244 -2.924,2.218 -4.665,2.923 -1.743,0.702 -3.607,1.058 -5.6,1.058 -1.988,0 -3.895,-0.356 -5.721,-1.058 C 8.125,12.046 6.509,11.072 5.099,9.828 3.688,8.585 2.55,7.111 1.678,5.41 0.809,3.712 0.248,1.908 0,0 m 21.768,-16.293 c 0.995,0.412 1.927,0.953 2.798,1.615 0.871,0.664 1.595,1.245 2.176,1.741 1.245,1.079 2.613,1.618 4.105,1.618 1.824,0 3.316,-0.581 4.478,-1.74 1.16,-1.163 1.742,-2.657 1.742,-4.479 0,-1.661 -0.54,-3.029 -1.616,-4.104 -2.573,-2.571 -5.537,-4.603 -8.894,-6.095 -3.361,-1.495 -7.03,-2.241 -11.009,-2.241 -3.9,0 -7.527,0.727 -10.885,2.178 -3.359,1.449 -6.324,3.463 -8.892,6.032 -2.573,2.569 -4.584,5.536 -6.035,8.896 -1.453,3.357 -2.175,6.985 -2.175,10.883 0,3.813 0.722,7.421 2.175,10.822 1.451,3.399 3.462,6.385 6.035,8.957 2.568,2.568 5.533,4.58 8.892,6.033 3.358,1.448 6.985,2.175 10.885,2.175 3.813,0 7.42,-0.727 10.823,-2.175 3.397,-1.453 6.384,-3.465 8.954,-6.033 2.572,-2.572 4.582,-5.558 6.034,-8.957 1.45,-3.401 2.177,-7.009 2.177,-10.822 v -1.616 c 0,-0.499 -0.042,-1.04 -0.125,-1.618 0,-0.497 -0.187,-0.913 -0.56,-1.246 C 42.479,-6.8 42.042,-6.964 41.545,-6.964 H 3.233 c -0.581,0 -1.016,-0.188 -1.306,-0.561 -0.291,-0.372 -0.436,-0.808 -0.436,-1.308 0.747,-1.657 1.867,-3.148 3.359,-4.476 1.493,-1.326 3.027,-2.322 4.604,-2.984 1.243,-0.581 2.55,-1.599 3.917,-3.047 1.368,-1.453 2.092,-3.547 2.177,-6.284 0,1.326 0.227,2.529 0.685,3.609 0.454,1.076 0.994,2.009 1.617,2.798 0.622,0.787 1.285,1.41 1.989,1.865 0.705,0.455 1.348,0.81 1.929,1.059"
             style="fill:#ffffff;fill-opacity:1;fill-rule:nonzero;stroke:none"
             id="path5171"
             inkscape:connector-curvature="0" />
        </g>
        <g
           id="g5173"
           transform="translate(320.0148,1994.1049)">
          <path
             d="m 0,0 c 0,-2.818 0.787,-5.349 2.363,-7.586 1.576,-2.24 3.565,-3.816 5.97,-4.727 1.409,-0.497 2.57,-1.35 3.484,-2.551 0.913,-1.201 1.368,-2.634 1.368,-4.291 0,-2.074 -0.705,-3.815 -2.114,-5.224 -1.413,-1.411 -3.152,-2.116 -5.224,-2.116 -0.996,0 -1.992,0.207 -2.986,0.623 -5.224,2.24 -9.35,5.617 -12.377,10.138 -3.027,4.52 -4.788,9.805 -5.286,15.861 V 35.7 c -2.075,0 -3.837,0.726 -5.287,2.177 -1.452,1.451 -2.175,3.212 -2.175,5.287 0,2.072 0.723,3.836 2.175,5.287 1.45,1.449 3.212,2.177 5.287,2.177 v 8.334 c 0,2.071 0.725,3.813 2.177,5.224 1.45,1.409 3.213,2.115 5.286,2.115 2.071,0 3.815,-0.706 5.225,-2.115 C -0.705,62.775 0,61.033 0,58.962 v -8.334 h 7.713 c 2.071,0 3.792,-0.728 5.162,-2.177 1.367,-1.451 2.053,-3.215 2.053,-5.287 0,-2.075 -0.727,-3.836 -2.179,-5.287 C 11.3,36.426 9.535,35.7 7.463,35.7 H 0 Z"
             style="fill:#ffffff;fill-opacity:1;fill-rule:nonzero;stroke:none"
             id="path5175"
             inkscape:connector-curvature="0" />
        </g>
        <g
           id="g5177"
           transform="translate(277.2941,2074.0513)">
          <path
             d="m 0,0 c -1.552,-1.116 -3.926,-2.431 -6.227,-2.123 -1.7,0.235 -3.129,1.335 -4.268,3.301 v 3.036 c 0.723,0.112 1.417,0.429 1.97,0.983 l 6.361,4.736 c 0.038,0.036 0.049,0.08 0.08,0.118 -2.766,0.845 -5.79,1.324 -8.968,1.324 -3.197,0 -6.237,-0.483 -9.016,-1.34 0.07,-0.102 0.12,-0.207 0.213,-0.302 l 6.077,-4.449 C -13.163,4.67 -12.4,4.324 -11.61,4.209 V 1.178 c -1.136,-1.959 -2.571,-3.07 -4.267,-3.301 -2.932,-0.395 -5.994,1.852 -7.303,2.957 -2.413,2.783 -3.885,6.403 -3.885,10.376 0,8.749 7.098,15.853 15.852,15.853 8.756,0 15.858,-7.104 15.858,-15.853 C 4.645,6.831 2.87,2.868 0,0 m -11.213,-4.645 c -2.385,0 -4.639,0.542 -6.667,1.486 0.424,-0.076 0.855,-0.127 1.29,-0.127 0.287,0 0.572,0.017 0.859,0.057 1.851,0.252 3.42,1.33 4.679,3.2 1.254,-1.87 2.823,-2.948 4.676,-3.2 0.287,-0.04 0.575,-0.057 0.859,-0.057 0.275,0 0.547,0.019 0.817,0.051 -1.989,-0.898 -4.189,-1.41 -6.513,-1.41 M 8.626,22.171 c 3.487,5.535 -0.071,16.278 -0.071,16.278 0,0 -8.585,-2.048 -11.37,-7.558 -2.482,0.883 -5.153,1.367 -7.937,1.367 -2.913,0 -5.701,-0.529 -8.277,-1.492 -2.72,5.603 -11.429,7.683 -11.429,7.683 0,0 -3.689,-11.136 0.122,-16.574 -2.57,-3.786 -4.073,-8.355 -4.073,-13.276 0,-13.072 16.58,-43.783 23.657,-43.783 7.452,0 23.663,30.711 23.663,43.783 0,5.051 -1.588,9.729 -4.285,13.572"
             style="fill:#add9f4;fill-opacity:1;fill-rule:nonzero;stroke:none"
             id="path5179"
             inkscape:connector-curvature="0" />
        </g>
        <g
           id="g5181"
           transform="translate(277.2941,2074.0513)">
          <path
             d="m 0,0 c -1.552,-1.116 -3.926,-2.431 -6.227,-2.123 -1.7,0.235 -3.129,1.335 -4.268,3.301 v 3.036 c 0.723,0.112 1.417,0.429 1.97,0.983 l 6.361,4.736 c 0.038,0.036 0.049,0.08 0.08,0.118 -2.766,0.845 -5.79,1.324 -8.968,1.324 -3.197,0 -6.237,-0.483 -9.016,-1.34 0.07,-0.102 0.12,-0.207 0.213,-0.302 l 6.077,-4.449 C -13.163,4.67 -12.4,4.324 -11.61,4.209 V 1.178 c -1.136,-1.959 -2.571,-3.07 -4.267,-3.301 -2.932,-0.395 -5.994,1.852 -7.303,2.957 -2.413,2.783 -3.885,6.403 -3.885,10.376 0,8.749 7.098,15.853 15.852,15.853 8.756,0 15.858,-7.104 15.858,-15.853 C 4.645,6.831 2.87,2.868 0,0 m -11.213,-4.645 c -2.385,0 -4.639,0.542 -6.667,1.486 0.424,-0.076 0.855,-0.127 1.29,-0.127 0.287,0 0.572,0.017 0.859,0.057 1.851,0.252 3.42,1.33 4.679,3.2 1.254,-1.87 2.823,-2.948 4.676,-3.2 0.287,-0.04 0.575,-0.057 0.859,-0.057 0.275,0 0.547,0.019 0.817,0.051 -1.989,-0.898 -4.189,-1.41 -6.513,-1.41 M 8.626,22.171 c 3.487,5.535 -0.071,16.278 -0.071,16.278 0,0 -8.585,-2.048 -11.37,-7.558 -2.482,0.883 -5.153,1.367 -7.937,1.367 -2.913,0 -5.701,-0.529 -8.277,-1.492 -2.72,5.603 -11.429,7.683 -11.429,7.683 0,0 -3.689,-11.136 0.122,-16.574 -2.57,-3.786 -4.073,-8.355 -4.073,-13.276 0,-13.072 16.58,-43.783 23.657,-43.783 7.452,0 23.663,30.711 23.663,43.783 0,5.051 -1.588,9.729 -4.285,13.572"
             style="fill:#ffffff;fill-opacity:1;fill-rule:nonzero;stroke:none"
             id="path5183"
             inkscape:connector-curvature="0" />
        </g>
        <g
           id="g5185"
           transform="translate(277.2941,2074.0513)">
          <path
             d="m 0,0 c -1.552,-1.116 -3.926,-2.431 -6.227,-2.123 -1.7,0.235 -3.129,1.335 -4.268,3.301 v 3.036 c 0.723,0.112 1.417,0.429 1.97,0.983 l 6.361,4.736 c 0.038,0.036 0.049,0.08 0.08,0.118 -2.766,0.845 -5.79,1.324 -8.968,1.324 -3.197,0 -6.237,-0.483 -9.016,-1.34 0.07,-0.102 0.12,-0.207 0.213,-0.302 l 6.077,-4.449 C -13.163,4.67 -12.4,4.324 -11.61,4.209 V 1.178 c -1.136,-1.959 -2.571,-3.07 -4.267,-3.301 -2.932,-0.395 -5.994,1.852 -7.303,2.957 -2.413,2.783 -3.885,6.403 -3.885,10.376 0,8.749 7.098,15.853 15.852,15.853 8.756,0 15.858,-7.104 15.858,-15.853 C 4.645,6.831 2.87,2.868 0,0 Z m -11.213,-4.645 c -2.385,0 -4.639,0.542 -6.667,1.486 0.424,-0.076 0.855,-0.127 1.29,-0.127 0.287,0 0.572,0.017 0.859,0.057 1.851,0.252 3.42,1.33 4.679,3.2 1.254,-1.87 2.823,-2.948 4.676,-3.2 0.287,-0.04 0.575,-0.057 0.859,-0.057 0.275,0 0.547,0.019 0.817,0.051 -1.989,-0.898 -4.189,-1.41 -6.513,-1.41 z M 8.626,22.171 c 3.487,5.535 -0.071,16.278 -0.071,16.278 0,0 -8.585,-2.048 -11.37,-7.558 -2.482,0.883 -5.153,1.367 -7.937,1.367 -2.913,0 -5.701,-0.529 -8.277,-1.492 -2.72,5.603 -11.429,7.683 -11.429,7.683 0,0 -3.689,-11.136 0.122,-16.574 -2.57,-3.786 -4.073,-8.355 -4.073,-13.276 0,-13.072 16.58,-43.783 23.657,-43.783 7.452,0 23.663,30.711 23.663,43.783 0,5.051 -1.588,9.729 -4.285,13.572 z"
             style="fill:none;stroke:#7eaecc;stroke-width:0.5;stroke-linecap:butt;stroke-linejoin:miter;stroke-miterlimit:10;stroke-dasharray:none;stroke-opacity:1"
             id="path5187"
             inkscape:connector-curvature="0" />
        </g>
        <g
           id="g5189"
           transform="translate(207.4044,2069.4063)">
          <path
             d="m 0,0 c -8.754,0 -15.852,7.099 -15.852,15.855 0,8.749 7.098,15.853 15.852,15.853 8.755,0 15.857,-7.104 15.857,-15.853 C 15.857,7.099 8.755,0 0,0 m 0.46,36.904 c -13.065,0 -23.657,-10.593 -23.657,-23.66 0,-13.073 16.58,-43.783 23.657,-43.783 7.452,0 23.663,30.71 23.663,43.783 0,13.067 -10.592,23.66 -23.663,23.66"
             style="fill:#ffffff;fill-opacity:1;fill-rule:nonzero;stroke:none"
             id="path5191"
             inkscape:connector-curvature="0" />
        </g>
        <g
           id="g5193"
           transform="translate(193.3449,2103.1982)">
          <path
             d="m 0,0 c -0.824,0.871 -1.924,1.853 -2.859,2.388 l -0.31,0.173 C -3.221,2.345 -3.347,1.916 -3.441,1.414 -3.607,0.37 -3.589,-0.703 -3.563,-2.171 c 0.031,-1.452 0.05,-3.221 -0.09,-5.033 -0.134,-1.818 -0.413,-3.666 -0.794,-5.447 -0.772,-3.578 -1.92,-6.921 -3.199,-10.108 l -0.076,-0.19 c -1.616,-4.028 -6.191,-5.983 -10.217,-4.368 -4.029,1.615 -5.984,6.19 -4.369,10.218 0.275,0.685 0.66,1.337 1.089,1.896 1.72,2.214 3.272,4.459 4.501,6.736 0.617,1.141 1.147,2.284 1.602,3.5 0.463,1.22 0.83,2.525 1.249,4.137 0.417,1.595 0.965,3.589 1.899,5.442 0.455,0.94 0.989,1.925 1.836,2.968 0.427,0.517 0.945,1.053 1.614,1.551 0.664,0.492 1.493,0.944 2.426,1.19 0.926,0.255 1.899,0.288 2.735,0.163 0.844,-0.124 1.555,-0.382 2.164,-0.671 1.209,-0.591 2.048,-1.3 2.778,-2 C 2.306,7.106 2.901,6.386 3.441,5.656 3.989,4.905 4.436,4.221 4.936,3.351 5.757,1.922 5.265,0.098 3.836,-0.725 2.615,-1.426 1.107,-1.171 0.18,-0.189 Z"
             style="fill:#2f6173;fill-opacity:1;fill-rule:nonzero;stroke:none"
             id="path5195"
             inkscape:connector-curvature="0" />
        </g>
        <g
           id="g5197"
           transform="translate(193.3449,2103.1982)">
          <path
             d="m 0,0 c -0.824,0.871 -1.924,1.853 -2.859,2.388 l -0.31,0.173 C -3.221,2.345 -3.347,1.916 -3.441,1.414 -3.607,0.37 -3.589,-0.703 -3.563,-2.171 c 0.031,-1.452 0.05,-3.221 -0.09,-5.033 -0.134,-1.818 -0.413,-3.666 -0.794,-5.447 -0.772,-3.578 -1.92,-6.921 -3.199,-10.108 l -0.076,-0.19 c -1.616,-4.028 -6.191,-5.983 -10.217,-4.368 -4.029,1.615 -5.984,6.19 -4.369,10.218 0.275,0.685 0.66,1.337 1.089,1.896 1.72,2.214 3.272,4.459 4.501,6.736 0.617,1.141 1.147,2.284 1.602,3.5 0.463,1.22 0.83,2.525 1.249,4.137 0.417,1.595 0.965,3.589 1.899,5.442 0.455,0.94 0.989,1.925 1.836,2.968 0.427,0.517 0.945,1.053 1.614,1.551 0.664,0.492 1.493,0.944 2.426,1.19 0.926,0.255 1.899,0.288 2.735,0.163 0.844,-0.124 1.555,-0.382 2.164,-0.671 1.209,-0.591 2.048,-1.3 2.778,-2 C 2.306,7.106 2.901,6.386 3.441,5.656 3.989,4.905 4.436,4.221 4.936,3.351 5.757,1.922 5.265,0.098 3.836,-0.725 2.615,-1.426 1.107,-1.171 0.18,-0.189 Z"
             style="fill:none;stroke:#ffffff;stroke-width:1.5;stroke-linecap:butt;stroke-linejoin:miter;stroke-miterlimit:10;stroke-dasharray:none;stroke-opacity:1"
             id="path5199"
             inkscape:connector-curvature="0" />
        </g>
        <g
           id="g5201"
           transform="translate(223.8175,2102.2085)">
          <path
             d="m 0,0 c 0.824,0.87 1.924,1.853 2.859,2.388 l 0.31,0.173 C 3.222,2.344 3.348,1.916 3.441,1.414 3.607,0.37 3.591,-0.704 3.563,-2.172 c -0.031,-1.45 -0.049,-3.22 0.09,-5.032 0.135,-1.818 0.412,-3.666 0.795,-5.448 0.771,-3.577 1.919,-6.92 3.197,-10.107 l 0.078,-0.191 c 1.615,-4.028 6.19,-5.982 10.216,-4.368 4.029,1.615 5.985,6.191 4.37,10.219 -0.276,0.684 -0.661,1.337 -1.088,1.896 -1.721,2.214 -3.273,4.458 -4.503,6.735 -0.615,1.141 -1.147,2.284 -1.603,3.5 -0.46,1.221 -0.828,2.526 -1.248,4.138 C 13.45,0.765 12.902,2.76 11.968,4.612 11.513,5.553 10.981,6.537 10.132,7.579 9.706,8.096 9.188,8.632 8.52,9.13 7.854,9.623 7.025,10.075 6.093,10.32 5.168,10.576 4.193,10.609 3.356,10.483 2.514,10.36 1.804,10.102 1.194,9.813 -0.014,9.222 -0.854,8.513 -1.582,7.812 -2.304,7.106 -2.9,6.386 -3.439,5.655 -3.989,4.904 -4.435,4.22 -4.935,3.351 c -0.821,-1.429 -0.33,-3.253 1.1,-4.076 1.221,-0.702 2.73,-0.446 3.654,0.535 z"
             style="fill:#2f6173;fill-opacity:1;fill-rule:nonzero;stroke:none"
             id="path5203"
             inkscape:connector-curvature="0" />
        </g>
        <g
           id="g5205"
           transform="translate(223.8175,2102.2085)">
          <path
             d="m 0,0 c 0.824,0.87 1.924,1.853 2.859,2.388 l 0.31,0.173 C 3.222,2.344 3.348,1.916 3.441,1.414 3.607,0.37 3.591,-0.704 3.563,-2.172 c -0.031,-1.45 -0.049,-3.22 0.09,-5.032 0.135,-1.818 0.412,-3.666 0.795,-5.448 0.771,-3.577 1.919,-6.92 3.197,-10.107 l 0.078,-0.191 c 1.615,-4.028 6.19,-5.982 10.216,-4.368 4.029,1.615 5.985,6.191 4.37,10.219 -0.276,0.684 -0.661,1.337 -1.088,1.896 -1.721,2.214 -3.273,4.458 -4.503,6.735 -0.615,1.141 -1.147,2.284 -1.603,3.5 -0.46,1.221 -0.828,2.526 -1.248,4.138 C 13.45,0.765 12.902,2.76 11.968,4.612 11.513,5.553 10.981,6.537 10.132,7.579 9.706,8.096 9.188,8.632 8.52,9.13 7.854,9.623 7.025,10.075 6.093,10.32 5.168,10.576 4.193,10.609 3.356,10.483 2.514,10.36 1.804,10.102 1.194,9.813 -0.014,9.222 -0.854,8.513 -1.582,7.812 -2.304,7.106 -2.9,6.386 -3.439,5.655 -3.989,4.904 -4.435,4.22 -4.935,3.351 c -0.821,-1.429 -0.33,-3.253 1.1,-4.076 1.221,-0.702 2.73,-0.446 3.654,0.535 z"
             style="fill:none;stroke:#ffffff;stroke-width:1.5;stroke-linecap:butt;stroke-linejoin:miter;stroke-miterlimit:10;stroke-dasharray:none;stroke-opacity:1"
             id="path5207"
             inkscape:connector-curvature="0" />
        </g>
        <g
           id="g5209"
           transform="translate(207.2345,2073.8804)">
          <path
             d="M 0,0 C -3.804,0.05 -5.35,1.459 -5.365,1.474 -5.521,1.625 -5.772,1.62 -5.925,1.462 -6.075,1.306 -6.072,1.054 -5.913,0.9 c 0.07,-0.067 1.804,-1.699 6.113,-1.699 3.904,0 5.997,1.605 6.084,1.674 C 6.457,1.01 6.488,1.259 6.352,1.433 6.216,1.605 5.967,1.632 5.794,1.499 5.776,1.487 4.045,0.159 0.794,0.01 V 4.576 H 0.578 0 Z"
             style="fill:#2f6173;fill-opacity:1;fill-rule:nonzero;stroke:none"
             id="path5211"
             inkscape:connector-curvature="0" />
        </g>
        <g
           id="g5213"
           transform="translate(207.2345,2073.8804)">
          <path
             d="M 0,0 C -3.804,0.05 -5.35,1.459 -5.365,1.474 -5.521,1.625 -5.772,1.62 -5.925,1.462 -6.075,1.306 -6.072,1.054 -5.913,0.9 c 0.07,-0.067 1.804,-1.699 6.113,-1.699 3.904,0 5.997,1.605 6.084,1.674 C 6.457,1.01 6.488,1.259 6.352,1.433 6.216,1.605 5.967,1.632 5.794,1.499 5.776,1.487 4.045,0.159 0.794,0.01 V 4.576 H 0.578 0 Z"
             style="fill:none;stroke:#ffffff;stroke-width:0.25;stroke-linecap:butt;stroke-linejoin:miter;stroke-miterlimit:10;stroke-dasharray:none;stroke-opacity:1"
             id="path5215"
             inkscape:connector-curvature="0" />
        </g>
        <g
           id="g5217"
           transform="translate(216.838,2085.5752)">
          <path
             d="m 0,0 c -0.279,0 -0.547,0.145 -0.692,0.404 -1.529,2.701 -5.317,3.664 -5.358,3.673 -0.425,0.105 -0.684,0.535 -0.578,0.96 0.105,0.428 0.536,0.69 0.961,0.582 C -5.484,5.573 -1.172,4.478 0.689,1.185 0.905,0.803 0.773,0.319 0.389,0.103 0.268,0.033 0.133,0 0,0 m -9.285,4.632 h -0.628 c -0.437,0 -0.793,0.358 -0.793,0.794 0,0.44 0.356,0.795 0.793,0.795 h 0.628 c 0.439,0 0.794,-0.355 0.794,-0.795 0,-0.436 -0.355,-0.794 -0.794,-0.794 M 2.594,0.794 c 0,4.372 -5.203,7.915 -11.619,7.915 -6.42,0 -11.623,-3.543 -11.623,-7.915 0,-4.372 5.203,-7.913 11.623,-7.913 6.416,0 11.619,3.541 11.619,7.913"
             style="fill:#2f6173;fill-opacity:1;fill-rule:nonzero;stroke:#ffffff;stroke-width:0.5;stroke-linecap:butt;stroke-linejoin:miter;stroke-miterlimit:10;stroke-dasharray:none;stroke-opacity:1"
             id="path5219"
             inkscape:connector-curvature="0" />
        </g>
        <g
           id="g5221"
           transform="translate(253.9796,1933.3251)">
          <path
             d="m 0,0 c -2.569,0.541 -4.553,-3.2 -4.553,-4.823 0,-1.532 1.624,-1.757 2.84,-1.892 2.795,-0.316 3.922,5.227 3.922,5.273 C 2.209,-0.135 0.632,-0.135 0,0"
             style="fill:#add9f4;fill-opacity:1;fill-rule:nonzero;stroke:none"
             id="path5223"
             inkscape:connector-curvature="0" />
        </g>
        <g
           id="g5225"
           transform="translate(253.9796,1933.3251)">
          <path
             d="m 0,0 c -2.569,0.541 -4.553,-3.2 -4.553,-4.823 0,-1.532 1.624,-1.757 2.84,-1.892 2.795,-0.316 3.922,5.227 3.922,5.273 C 2.209,-0.135 0.632,-0.135 0,0 Z"
             style="fill:none;stroke:#7eaecc;stroke-width:0.5;stroke-linecap:butt;stroke-linejoin:miter;stroke-miterlimit:10;stroke-dasharray:none;stroke-opacity:1"
             id="path5227"
             inkscape:connector-curvature="0" />
        </g>
        <g
           id="g5229"
           transform="translate(288.5089,1949.4164)">
          <path
             d="m 0,0 c -0.811,-2.569 -3.605,-6.896 -6.806,-9.871 l -0.09,0.09 C -4.778,-5.138 -2.208,-1.082 0,0 M 39.622,4.282 39.713,4.191 C 38.946,2.569 37.955,0 28.534,-9.375 l -0.09,0.089 c 2.66,5.229 6.716,9.781 11.178,13.568 m -2.974,-19.788 c 0.766,1.669 2.164,3.742 2.164,5.635 0,0.856 -0.272,1.983 -1.353,1.983 -2.659,0 -6.265,-4.417 -6.265,-7.031 0,-0.722 0.271,-1.172 0.63,-1.758 -0.765,-0.903 -1.576,-2.119 -3.018,-2.344 -1.713,-0.225 -2.795,2.118 -1.985,4.958 l 7.032,6.896 c 2.885,2.795 9.556,9.556 9.556,13.657 0,0.857 -0.406,1.668 -1.307,1.668 -1.893,0 -8.969,-5.499 -12.619,-9.871 -3.154,-3.752 -5.597,-7.964 -6.116,-12.823 -1.528,-1.223 -5.072,-4.034 -6.689,-4.034 -0.721,0 -1.127,0.27 -1.127,0.99 0,2.03 3.2,5.591 4.643,6.897 0.721,0.631 1.938,1.668 1.848,2.75 -0.181,2.343 -0.676,2.479 -1.038,2.479 -1.126,0 -5.543,-4.282 -6.489,-5.138 l -4.462,-4.012 c -2.119,-1.893 -4.598,-3.2 -5.409,-3.2 -0.316,0 -0.361,0.451 -0.361,0.676 0,1.893 1.082,2.885 2.48,3.877 1.757,1.262 2.028,1.668 3.426,3.245 0.495,0.406 1.711,1.667 1.801,2.388 0.181,1.353 -2.118,0.947 -2.749,0.947 -0.765,0 -1.352,-0.09 -1.983,-0.496 -2.217,-1.454 -4.718,-4.453 -5.763,-7.746 -1.882,-1.654 -5.046,-4.153 -7.354,-4.153 -1.218,0 -1.849,0.902 -2.255,1.938 -0.225,1.082 -0.09,2.344 0.316,3.11 9.781,9.465 10.952,13.432 11.269,17.714 0.045,0.586 -0.137,1.666 -0.902,1.666 -1.442,0 -5.724,-4.191 -9.69,-9.103 -2.346,-2.886 -4.093,-6.725 -4.704,-10.568 -2.606,-2.025 -6.32,-4.892 -9.586,-4.892 -2.344,0 -3.425,1.397 -3.425,2.434 0,1.261 0.811,1.937 1.802,2.66 l 3.787,2.838 c 0.044,-0.856 0.495,-1.982 1.532,-1.982 1.217,0 4.777,3.47 4.777,5.949 0,1.352 -0.63,2.073 -2.027,2.073 -2.525,0 -6.852,-2.434 -8.88,-3.966 -2.929,-2.208 -4.282,-3.606 -4.282,-7.392 0,-3.335 1.668,-6.582 5.138,-6.582 3.736,0 8.053,3.397 10.921,6.209 -0.001,-0.072 -0.012,-0.143 -0.012,-0.213 0,-2.66 0.722,-5.859 4.013,-5.859 3.172,0 6.588,3.051 9.082,5.568 -0.009,-0.158 -0.022,-0.318 -0.022,-0.475 0,-1.938 1.217,-4.462 3.426,-4.462 2.478,0 5.498,4.055 7.256,5.588 l 0.091,-0.09 c -0.451,-1.171 -0.947,-2.434 -0.947,-3.786 0,-1.577 0.991,-2.974 2.659,-2.974 3.06,0 7.329,4.357 9.789,6.783 0.055,-2.262 0.582,-6.107 3.331,-6.107 2.973,0 6.129,2.749 8.067,4.778 2.885,0.045 5.183,0.766 7.211,2.884 l -0.45,1.488 c -1.443,-1.038 -2.93,-2.029 -4.778,-1.669"
             style="fill:#add9f4;fill-opacity:1;fill-rule:nonzero;stroke:none"
             id="path5231"
             inkscape:connector-curvature="0" />
        </g>
        <g
           id="g5233"
           transform="translate(288.5089,1949.4164)">
          <path
             d="m 0,0 c -0.811,-2.569 -3.605,-6.896 -6.806,-9.871 l -0.09,0.09 C -4.778,-5.138 -2.208,-1.082 0,0 Z M 39.622,4.282 39.713,4.191 C 38.946,2.569 37.955,0 28.534,-9.375 l -0.09,0.089 c 2.66,5.229 6.716,9.781 11.178,13.568 z m -2.974,-19.788 c 0.766,1.669 2.164,3.742 2.164,5.635 0,0.856 -0.272,1.983 -1.353,1.983 -2.659,0 -6.265,-4.417 -6.265,-7.031 0,-0.722 0.271,-1.172 0.63,-1.758 -0.765,-0.903 -1.576,-2.119 -3.018,-2.344 -1.713,-0.225 -2.795,2.118 -1.985,4.958 l 7.032,6.896 c 2.885,2.795 9.556,9.556 9.556,13.657 0,0.857 -0.406,1.668 -1.307,1.668 -1.893,0 -8.969,-5.499 -12.619,-9.871 -3.154,-3.752 -5.597,-7.964 -6.116,-12.823 -1.528,-1.223 -5.072,-4.034 -6.689,-4.034 -0.721,0 -1.127,0.27 -1.127,0.99 0,2.03 3.2,5.591 4.643,6.897 0.721,0.631 1.938,1.668 1.848,2.75 -0.181,2.343 -0.676,2.479 -1.038,2.479 -1.126,0 -5.543,-4.282 -6.489,-5.138 l -4.462,-4.012 c -2.119,-1.893 -4.598,-3.2 -5.409,-3.2 -0.316,0 -0.361,0.451 -0.361,0.676 0,1.893 1.082,2.885 2.48,3.877 1.757,1.262 2.028,1.668 3.426,3.245 0.495,0.406 1.711,1.667 1.801,2.388 0.181,1.353 -2.118,0.947 -2.749,0.947 -0.765,0 -1.352,-0.09 -1.983,-0.496 -2.217,-1.454 -4.718,-4.453 -5.763,-7.746 -1.882,-1.654 -5.046,-4.153 -7.354,-4.153 -1.218,0 -1.849,0.902 -2.255,1.938 -0.225,1.082 -0.09,2.344 0.316,3.11 9.781,9.465 10.952,13.432 11.269,17.714 0.045,0.586 -0.137,1.666 -0.902,1.666 -1.442,0 -5.724,-4.191 -9.69,-9.103 -2.346,-2.886 -4.093,-6.725 -4.704,-10.568 -2.606,-2.025 -6.32,-4.892 -9.586,-4.892 -2.344,0 -3.425,1.397 -3.425,2.434 0,1.261 0.811,1.937 1.802,2.66 l 3.787,2.838 c 0.044,-0.856 0.495,-1.982 1.532,-1.982 1.217,0 4.777,3.47 4.777,5.949 0,1.352 -0.63,2.073 -2.027,2.073 -2.525,0 -6.852,-2.434 -8.88,-3.966 -2.929,-2.208 -4.282,-3.606 -4.282,-7.392 0,-3.335 1.668,-6.582 5.138,-6.582 3.736,0 8.053,3.397 10.921,6.209 -0.001,-0.072 -0.012,-0.143 -0.012,-0.213 0,-2.66 0.722,-5.859 4.013,-5.859 3.172,0 6.588,3.051 9.082,5.568 -0.009,-0.158 -0.022,-0.318 -0.022,-0.475 0,-1.938 1.217,-4.462 3.426,-4.462 2.478,0 5.498,4.055 7.256,5.588 l 0.091,-0.09 c -0.451,-1.171 -0.947,-2.434 -0.947,-3.786 0,-1.577 0.991,-2.974 2.659,-2.974 3.06,0 7.329,4.357 9.789,6.783 0.055,-2.262 0.582,-6.107 3.331,-6.107 2.973,0 6.129,2.749 8.067,4.778 2.885,0.045 5.183,0.766 7.211,2.884 l -0.45,1.488 c -1.443,-1.038 -2.93,-2.029 -4.778,-1.669 z"
             style="fill:none;stroke:#7eaecc;stroke-width:0.5;stroke-linecap:butt;stroke-linejoin:miter;stroke-miterlimit:10;stroke-dasharray:none;stroke-opacity:1"
             id="path5235"
             inkscape:connector-curvature="0" />
        </g>
      </g>
    </g>
  </g>
</svg>
