<svg xmlns="http://www.w3.org/2000/svg" xmlns:xlink="http://www.w3.org/1999/xlink" viewBox="0 0 72 50.93"><defs><style>.cls-1{fill:url(#radial-gradient);}.cls-2{fill:url(#radial-gradient-2);}.cls-3,.cls-5,.cls-8{fill:none;}.cls-4{fill:#b9d8f3;}.cls-5{stroke:#8dacc9;stroke-width:0.5px;}.cls-5,.cls-8{stroke-miterlimit:10;}.cls-6{fill:#6490ab;}.cls-7{fill:#446171;}.cls-8{stroke:#fff;stroke-width:1.5px;}.cls-9{clip-path:url(#clip-path);}.cls-10{mask:url(#mask);}.cls-11{fill:url(#radial-gradient-3);}.cls-12{clip-path:url(#clip-path-2);}.cls-13{mask:url(#mask-2);}.cls-14{fill:url(#radial-gradient-4);}</style><radialGradient id="radial-gradient" cx="1811.19" cy="-1171.19" r="0.17" gradientTransform="translate(-148658.66 16242.67) scale(82.11 13.83)" gradientUnits="userSpaceOnUse"><stop offset="0" stop-color="gray"/><stop offset="0.13" stop-color="#5f5f5f"/><stop offset="0.3" stop-color="#3d3d3d"/><stop offset="0.47" stop-color="#222"/><stop offset="0.64" stop-color="#0f0f0f"/><stop offset="0.81" stop-color="#040404"/><stop offset="1"/></radialGradient><radialGradient id="radial-gradient-2" cx="1813.22" cy="-1171.22" r="0.17" gradientTransform="translate(-148901.79 16247.74) scale(82.13 13.83)" xlink:href="#radial-gradient"/><clipPath id="clip-path"><rect class="cls-3" x="42.83" y="46.02" width="29.16" height="4.91"/></clipPath><mask id="mask" x="42.83" y="46.02" width="29.16" height="4.91" maskUnits="userSpaceOnUse"><rect class="cls-1" x="42.83" y="46.02" width="29.16" height="4.91"/></mask><radialGradient id="radial-gradient-3" cx="1811.19" cy="-1171.19" r="0.17" gradientTransform="translate(-148658.66 16242.67) scale(82.11 13.83)" gradientUnits="userSpaceOnUse"><stop offset="0" stop-color="#6087c4"/><stop offset="0" stop-color="#6087c4"/><stop offset="0.32" stop-color="#689ad2"/><stop offset="0.65" stop-color="#6ca5da"/><stop offset="1" stop-color="#6ea9dd"/></radialGradient><clipPath id="clip-path-2"><rect class="cls-3" x="8.21" y="46.02" width="29.16" height="4.91"/></clipPath><mask id="mask-2" x="8.21" y="46.02" width="29.16" height="4.91" maskUnits="userSpaceOnUse"><rect class="cls-2" x="8.21" y="46.02" width="29.16" height="4.91"/></mask><radialGradient id="radial-gradient-4" cx="1813.22" cy="-1171.22" r="0.17" gradientTransform="translate(-148901.79 16247.74) scale(82.13 13.83)" xlink:href="#radial-gradient-3"/></defs><title>Popet</title><g id="Capa_2" data-name="Capa 2"><g id="Layer_2" data-name="Layer 2"><path class="cls-4" d="M68.63,11.06c2.05-3.25,0-9.57,0-9.57s-5,1.2-6.69,4.44A13.95,13.95,0,0,0,52.37,6c-1.6-3.29-6.72-4.52-6.72-4.52s-2.17,6.55.07,9.75A13.85,13.85,0,0,0,43.33,19c0,7.69,9.75,25.74,13.91,25.74,4.38,0,13.91-18.06,13.91-25.74a13.84,13.84,0,0,0-2.52-8M57,26.82A9.26,9.26,0,0,1,53,26a4.26,4.26,0,0,0,.76.07,3.66,3.66,0,0,0,.5,0,3.94,3.94,0,0,0,2.75-1.88A3.94,3.94,0,0,0,59.81,26a3.68,3.68,0,0,0,.51,0l.48,0a9.28,9.28,0,0,1-3.83.83m6.59-2.73a5.51,5.51,0,0,1-3.66,1.25,3.5,3.5,0,0,1-2.51-1.94V21.62A2.06,2.06,0,0,0,58.55,21l3.74-2.78a.69.69,0,0,0,0-.07,18.23,18.23,0,0,0-10.57,0,1.25,1.25,0,0,0,.13.18L55.46,21a2.23,2.23,0,0,0,1.27.63V23.4a3.5,3.5,0,0,1-2.51,1.94c-1.72.23-3.52-1.09-4.29-1.74a9.32,9.32,0,1,1,13.63.49"/><path class="cls-5" d="M68.63,11.06c2.05-3.25,0-9.57,0-9.57s-5,1.2-6.69,4.44A13.95,13.95,0,0,0,52.37,6c-1.6-3.29-6.72-4.52-6.72-4.52s-2.17,6.55.07,9.75A13.85,13.85,0,0,0,43.33,19c0,7.69,9.75,25.74,13.91,25.74,4.38,0,13.91-18.06,13.91-25.74A13.84,13.84,0,0,0,68.63,11.06ZM57,26.82A9.26,9.26,0,0,1,53,26a4.26,4.26,0,0,0,.76.07,3.66,3.66,0,0,0,.5,0,3.94,3.94,0,0,0,2.75-1.88A3.94,3.94,0,0,0,59.81,26a3.68,3.68,0,0,0,.51,0l.48,0A9.28,9.28,0,0,1,57,26.82Zm6.59-2.73a5.51,5.51,0,0,1-3.66,1.25,3.5,3.5,0,0,1-2.51-1.94V21.62A2.06,2.06,0,0,0,58.55,21l3.74-2.78a.69.69,0,0,0,0-.07,18.23,18.23,0,0,0-10.57,0,1.25,1.25,0,0,0,.13.18L55.46,21a2.23,2.23,0,0,0,1.27.63V23.4a3.5,3.5,0,0,1-2.51,1.94c-1.72.23-3.52-1.09-4.29-1.74a9.32,9.32,0,1,1,13.63.49Z"/><path class="cls-6" d="M22.74,5.13A13.91,13.91,0,0,0,8.83,19c0,7.69,9.75,25.74,13.91,25.74,4.38,0,13.91-18.06,13.91-25.74A13.91,13.91,0,0,0,22.74,5.13m-.27,21.7a9.32,9.32,0,1,1,9.32-9.32,9.32,9.32,0,0,1-9.32,9.32"/><path class="cls-7" d="M14.2,7a8.31,8.31,0,0,0-1.68-1.4l-.18-.1c0,.13-.1.38-.16.67a12.19,12.19,0,0,0-.07,2.11c0,.85,0,1.89-.05,3a23.55,23.55,0,0,1-.47,3.2A36.76,36.76,0,0,1,9.7,20.34l0,.11A4.62,4.62,0,0,1,1.08,17a4.8,4.8,0,0,1,.64-1.11,29,29,0,0,0,2.65-4,16.2,16.2,0,0,0,.94-2.06A23.56,23.56,0,0,0,6,7.44a16.17,16.17,0,0,1,1.12-3.2A8.57,8.57,0,0,1,8.24,2.5a5.46,5.46,0,0,1,.95-.91,4.25,4.25,0,0,1,1.43-.7,4,4,0,0,1,1.61-.1,4.44,4.44,0,0,1,1.27.39,6.24,6.24,0,0,1,1.63,1.18,10.33,10.33,0,0,1,1.09,1.27A13.93,13.93,0,0,1,17.1,5a1.76,1.76,0,0,1-2.8,2.08Z"/><path class="cls-8" d="M14.2,7a8.31,8.31,0,0,0-1.68-1.4l-.18-.1c0,.13-.1.38-.16.67a12.19,12.19,0,0,0-.07,2.11c0,.85,0,1.89-.05,3a23.55,23.55,0,0,1-.47,3.2A36.76,36.76,0,0,1,9.7,20.34l0,.11A4.62,4.62,0,0,1,1.08,17a4.8,4.8,0,0,1,.64-1.11,29,29,0,0,0,2.65-4,16.2,16.2,0,0,0,.94-2.06A23.56,23.56,0,0,0,6,7.44a16.17,16.17,0,0,1,1.12-3.2A8.57,8.57,0,0,1,8.24,2.5a5.46,5.46,0,0,1,.95-.91,4.25,4.25,0,0,1,1.43-.7,4,4,0,0,1,1.61-.1,4.44,4.44,0,0,1,1.27.39,6.24,6.24,0,0,1,1.63,1.18,10.33,10.33,0,0,1,1.09,1.27A13.93,13.93,0,0,1,17.1,5a1.76,1.76,0,0,1-2.8,2.08Z"/><path class="cls-7" d="M32.12,7.54a8.28,8.28,0,0,1,1.68-1.4L34,6c0,.13.1.38.16.67a12.14,12.14,0,0,1,.07,2.11c0,.85,0,1.89.05,3a23.75,23.75,0,0,0,.47,3.2,36.65,36.65,0,0,0,1.88,5.94l0,.11a4.62,4.62,0,1,0,8.58-3.44,4.81,4.81,0,0,0-.64-1.12,29.11,29.11,0,0,1-2.65-4A16.65,16.65,0,0,1,41,10.46,24.17,24.17,0,0,1,40.27,8a16.1,16.1,0,0,0-1.12-3.2,8.47,8.47,0,0,0-1.08-1.74,5.41,5.41,0,0,0-.95-.91,4.26,4.26,0,0,0-1.43-.7,4,4,0,0,0-1.61-.1,4.43,4.43,0,0,0-1.27.39,6.22,6.22,0,0,0-1.63,1.18,10.26,10.26,0,0,0-1.09,1.27,13.77,13.77,0,0,0-.88,1.35A1.76,1.76,0,0,0,32,7.65Z"/><path class="cls-8" d="M32.12,7.54a8.28,8.28,0,0,1,1.68-1.4L34,6c0,.13.1.38.16.67a12.14,12.14,0,0,1,.07,2.11c0,.85,0,1.89.05,3a23.75,23.75,0,0,0,.47,3.2,36.65,36.65,0,0,0,1.88,5.94l0,.11a4.62,4.62,0,1,0,8.58-3.44,4.81,4.81,0,0,0-.64-1.12,29.11,29.11,0,0,1-2.65-4A16.65,16.65,0,0,1,41,10.46,24.17,24.17,0,0,1,40.27,8a16.1,16.1,0,0,0-1.12-3.2,8.47,8.47,0,0,0-1.08-1.74,5.41,5.41,0,0,0-.95-.91,4.26,4.26,0,0,0-1.43-.7,4,4,0,0,0-1.61-.1,4.43,4.43,0,0,0-1.27.39,6.22,6.22,0,0,0-1.63,1.18,10.26,10.26,0,0,0-1.09,1.27,13.77,13.77,0,0,0-.88,1.35A1.76,1.76,0,0,0,32,7.65Z"/><path class="cls-7" d="M22.37,24.19a4.92,4.92,0,0,1-3.15-.87.23.23,0,0,0-.32.34,5.27,5.27,0,0,0,3.59,1,6,6,0,0,0,3.58-1,.23.23,0,0,0,0-.33.24.24,0,0,0-.33,0,5.48,5.48,0,0,1-2.94.88V21.5h-.47Z"/><path class="cls-7" d="M29.54,16.85c0-2.57-3.06-4.65-6.83-4.65s-6.83,2.08-6.83,4.65,3.06,4.65,6.83,4.65,6.83-2.08,6.83-4.65m-7-2.26h-.37a.47.47,0,0,1,0-.93h.37a.47.47,0,1,1,0,.93M28,17.32a.47.47,0,0,1-.41-.24,5.58,5.58,0,0,0-3.15-2.16.47.47,0,0,1,.22-.91,6.46,6.46,0,0,1,3.74,2.61.47.47,0,0,1-.18.64.46.46,0,0,1-.23.06"/><g class="cls-9"><g class="cls-10"><rect class="cls-11" x="42.83" y="46.02" width="29.16" height="4.91"/></g></g><g class="cls-12"><g class="cls-13"><rect class="cls-14" x="8.21" y="46.02" width="29.16" height="4.91"/></g></g><path class="cls-7" d="M46.41,9.86s-1.33-3.62.12-6.26a6.7,6.7,0,0,1,4.06,2.94l0,.09A14,14,0,0,0,46.5,9.85l-.09,0"/><path class="cls-7" d="M67.29,9.73a14,14,0,0,0-4.22-3.19,6.7,6.7,0,0,1,4.05-2.93c1.29,2.34.38,5.46.17,6.12"/></g></g></svg>