<svg xmlns="http://www.w3.org/2000/svg" xmlns:xlink="http://www.w3.org/1999/xlink" viewBox="0 0 69.68 49.08"><defs><style>.cls-1{fill:url(#radial-gradient);}.cls-2{fill:url(#radial-gradient-2);}.cls-3{fill:none;}.cls-4{fill:#fff;}.cls-5{clip-path:url(#clip-path);}.cls-6{mask:url(#mask);}.cls-7{fill:url(#radial-gradient-3);}.cls-8{clip-path:url(#clip-path-2);}.cls-9{mask:url(#mask-2);}.cls-10{fill:url(#radial-gradient-4);}</style><radialGradient id="radial-gradient" cx="1972.21" cy="995.56" r="0.17" gradientTransform="translate(-161881.49 -13719.2) scale(82.11 13.83)" gradientUnits="userSpaceOnUse"><stop offset="0" stop-color="gray"/><stop offset="0.13" stop-color="#5f5f5f"/><stop offset="0.3" stop-color="#3d3d3d"/><stop offset="0.47" stop-color="#222"/><stop offset="0.64" stop-color="#0f0f0f"/><stop offset="0.81" stop-color="#040404"/><stop offset="1"/></radialGradient><radialGradient id="radial-gradient-2" cx="1974.24" cy="995.57" r="0.17" gradientTransform="translate(-162128.4 -13723.24) scale(82.13 13.83)" xlink:href="#radial-gradient"/><clipPath id="clip-path"><rect class="cls-3" x="41.16" y="44.27" width="28.52" height="4.8"/></clipPath><mask id="mask" x="41.16" y="44.27" width="28.52" height="4.8" maskUnits="userSpaceOnUse"><rect class="cls-1" x="41.16" y="44.27" width="28.52" height="4.8"/></mask><radialGradient id="radial-gradient-3" cx="1972.21" cy="995.56" r="0.17" gradientTransform="translate(-161881.49 -13719.2) scale(82.11 13.83)" gradientUnits="userSpaceOnUse"><stop offset="0" stop-color="#fff"/><stop offset="0.03" stop-color="#fff"/><stop offset="1" stop-color="#fff"/></radialGradient><clipPath id="clip-path-2"><rect class="cls-3" x="7.3" y="44.27" width="28.52" height="4.8"/></clipPath><mask id="mask-2" x="7.3" y="44.27" width="28.52" height="4.8" maskUnits="userSpaceOnUse"><rect class="cls-2" x="7.3" y="44.27" width="28.52" height="4.8"/></mask><radialGradient id="radial-gradient-4" cx="1974.24" cy="995.57" r="0.17" gradientTransform="translate(-162128.4 -13723.24) scale(82.13 13.83)" xlink:href="#radial-gradient-3"/></defs><title>Popet White</title><g id="Capa_2" data-name="Capa 2"><g id="Layer_2" data-name="Layer 2"><path class="cls-4" d="M30.68,6.64a8.1,8.1,0,0,1,1.64-1.37l.18-.1c0,.12.1.37.16.66a11.88,11.88,0,0,1,.07,2.06c0,.83,0,1.85.05,2.89a23.23,23.23,0,0,0,.46,3.13,35.85,35.85,0,0,0,1.84,5.81l0,.11a4.52,4.52,0,1,0,8.39-3.36,4.71,4.71,0,0,0-.63-1.09,28.47,28.47,0,0,1-2.59-3.87,16.28,16.28,0,0,1-.92-2,23.64,23.64,0,0,1-.72-2.38A15.75,15.75,0,0,0,37.56,4,8.29,8.29,0,0,0,36.5,2.28a5.29,5.29,0,0,0-.93-.89A4.17,4.17,0,0,0,34.18.7,3.88,3.88,0,0,0,32.61.61,4.33,4.33,0,0,0,31.36,1a6.09,6.09,0,0,0-1.6,1.15A10,10,0,0,0,28.7,3.39a13.47,13.47,0,0,0-.86,1.32,1.72,1.72,0,0,0,2.73,2Z"/><path class="cls-4" d="M12.89,6.32a8.57,8.57,0,0,0-1.32-1.16l0,.16a11.85,11.85,0,0,0-.06,2c0,.45,0,.92,0,1.4a13.65,13.65,0,0,1,2.08-1.85A2.09,2.09,0,0,1,13,6.43Z"/><path class="cls-4" d="M32.36,7.88a11.73,11.73,0,0,0-.07-2l0-.15a8.62,8.62,0,0,0-1.32,1.16l-.1.11a2.06,2.06,0,0,1-.62.44,13.67,13.67,0,0,1,2.15,2.27C32.35,9.07,32.35,8.44,32.36,7.88Z"/><path class="cls-4" d="M34.73,19.86A35.83,35.83,0,0,1,32.88,14a23.49,23.49,0,0,1-.46-3.18c0-.37,0-.73,0-1.09a13.67,13.67,0,0,0-2.15-2.27,2.06,2.06,0,0,1-3-1.88,13.47,13.47,0,0,0-10.68-.35,2.08,2.08,0,0,1-3,1.64,13.65,13.65,0,0,0-2.08,1.85c0,.5,0,1-.06,1.53A23.31,23.31,0,0,1,11,13.42,36,36,0,0,1,9.1,19.29l0,.11a4.86,4.86,0,0,1-.82,1.32C10,29.1,17.88,43.06,21.5,43.06c3.89,0,11.94-14.57,13.38-22.87,0-.07-.08-.14-.11-.22ZM21.24,25.5a9.12,9.12,0,1,1,9.12-9.12A9.12,9.12,0,0,1,21.24,25.5Z"/><path class="cls-4" d="M21.14,22.93a4.81,4.81,0,0,1-3.09-.85.23.23,0,0,0-.31.33,5.15,5.15,0,0,0,3.52,1,5.9,5.9,0,0,0,3.5-1,.23.23,0,0,0,0-.32.23.23,0,0,0-.32,0,5.36,5.36,0,0,1-2.87.86V20.3h-.46Z"/><path class="cls-4" d="M28.15,15.75c0-2.51-3-4.55-6.68-4.55s-6.68,2-6.68,4.55,3,4.55,6.68,4.55,6.68-2,6.68-4.55m-6.83-2.21H21a.46.46,0,0,1,0-.91h.36a.46.46,0,1,1,0,.91m5.34,2.66a.46.46,0,0,1-.4-.23,5.45,5.45,0,0,0-3.08-2.11A.46.46,0,0,1,23.4,13a6.32,6.32,0,0,1,3.66,2.55.46.46,0,0,1-.17.62.45.45,0,0,1-.22.06"/><g class="cls-5"><g class="cls-6"><rect class="cls-7" x="41.16" y="44.27" width="28.52" height="4.8"/></g></g><g class="cls-8"><g class="cls-9"><rect class="cls-10" x="7.3" y="44.27" width="28.52" height="4.8"/></g></g><path class="cls-4" d="M13.15,6.07A8.13,8.13,0,0,0,11.51,4.7l-.18-.1c0,.12-.1.37-.16.66a11.93,11.93,0,0,0-.07,2.06c0,.83,0,1.85-.05,2.89a23,23,0,0,1-.46,3.13,36,36,0,0,1-1.84,5.81l0,.11A4.52,4.52,0,0,1,.33,15.9,4.69,4.69,0,0,1,1,14.81a28.37,28.37,0,0,0,2.59-3.87,15.84,15.84,0,0,0,.92-2,23,23,0,0,0,.72-2.38A15.81,15.81,0,0,1,6.27,3.42,8.38,8.38,0,0,1,7.33,1.71,5.34,5.34,0,0,1,8.26.82,4.16,4.16,0,0,1,9.65.13,3.89,3.89,0,0,1,11.22,0a4.34,4.34,0,0,1,1.24.39,6.11,6.11,0,0,1,1.6,1.15,10.1,10.1,0,0,1,1.07,1.24A13.63,13.63,0,0,1,16,4.14a1.72,1.72,0,0,1-2.73,2Z"/><path class="cls-3" d="M55,7.27A9.11,9.11,0,0,0,48.1,22.35c.75.64,2.51,1.93,4.2,1.7a3.43,3.43,0,0,0,2.45-1.9V20.41a2.18,2.18,0,0,1-1.25-.62L50,17.23a1.24,1.24,0,0,1-.12-.17,17.83,17.83,0,0,1,10.34,0,.69.69,0,0,1,0,.07l-3.66,2.72a2,2,0,0,1-1.13.57v1.75a3.42,3.42,0,0,0,2.46,1.9,5.39,5.39,0,0,0,3.58-1.22A9.11,9.11,0,0,0,55,7.27Z"/><path class="cls-3" d="M48.74,5.67a6.55,6.55,0,0,0-4-2.87c-1.42,2.58-.12,6.12-.12,6.12l.09,0a13.65,13.65,0,0,1,4-3.14Z"/><path class="cls-3" d="M39.05,9.61a24.22,24.22,0,0,1-.73-2.41,15.42,15.42,0,0,0-1.07-3.06,8,8,0,0,0-1-1.64,5,5,0,0,0-.87-.83A3.86,3.86,0,0,0,34.09,1,3.55,3.55,0,0,0,32.66.94a4,4,0,0,0-1.15.36A5.76,5.76,0,0,0,30,2.39a9.42,9.42,0,0,0-1,1.2,13,13,0,0,0-.84,1.29,1.38,1.38,0,0,0,2.2,1.64l.1-.11A8.66,8.66,0,0,1,32.15,5l.57-.32.13.54c0,.14.09.34.13.56a12.16,12.16,0,0,1,.07,2.13c0,.85,0,1.85,0,2.86a22.65,22.65,0,0,0,.45,3.09,35.17,35.17,0,0,0,1.82,5.76l0,.11A4.19,4.19,0,0,0,40.87,22a4.13,4.13,0,0,0,1.22-.78,15.54,15.54,0,0,1-.45-3.37A13.62,13.62,0,0,1,42,14.77a26.69,26.69,0,0,1-2-3.1A16.65,16.65,0,0,1,39.05,9.61Z"/><path class="cls-3" d="M57.76,24.69a3.85,3.85,0,0,1-2.69-1.84,3.86,3.86,0,0,1-2.69,1.84,3.58,3.58,0,0,1-.49,0,4.17,4.17,0,0,1-.74-.07,9,9,0,0,0,7.58,0l-.47,0A3.61,3.61,0,0,1,57.76,24.69Z"/><path class="cls-3" d="M61,5.66a13.67,13.67,0,0,1,4.13,3.12c.21-.65,1.1-3.7-.16-6A6.55,6.55,0,0,0,61,5.66Z"/><path class="cls-4" d="M66.39,10.08c2-3.18,0-9.36,0-9.36S61.41,1.9,59.81,5.07a13.64,13.64,0,0,0-9.32.07C48.92,1.92,43.91.72,43.91.72s-2.12,6.4.07,9.53a13.56,13.56,0,0,0-1.76,3.69c.29.4.59.81.92,1.24a5,5,0,0,1,.67,1.17A4.85,4.85,0,0,1,42.26,22c2.18,8.44,9.54,21.08,13,21.08,4.28,0,13.61-17.66,13.61-25.18A13.54,13.54,0,0,0,66.39,10.08ZM44.75,8.9l-.09,0s-1.31-3.54.12-6.12a6.55,6.55,0,0,1,4,2.87l0,.09A13.65,13.65,0,0,0,44.75,8.9ZM55,25.5a9.05,9.05,0,0,1-3.83-.85,4.17,4.17,0,0,0,.74.07,3.58,3.58,0,0,0,.49,0,3.86,3.86,0,0,0,2.69-1.84,3.85,3.85,0,0,0,2.69,1.84,3.61,3.61,0,0,0,.49,0l.47,0A9.08,9.08,0,0,1,55,25.5Zm6.45-2.67a5.39,5.39,0,0,1-3.58,1.22,3.42,3.42,0,0,1-2.46-1.9V20.41a2,2,0,0,0,1.13-.57l3.66-2.72a.69.69,0,0,0,0-.07,17.83,17.83,0,0,0-10.34,0,1.24,1.24,0,0,0,.12.17l3.49,2.56a2.18,2.18,0,0,0,1.25.62v1.74a3.43,3.43,0,0,1-2.45,1.9c-1.69.23-3.45-1.07-4.2-1.7a9.11,9.11,0,1,1,13.33.48Zm3.65-14A13.67,13.67,0,0,0,61,5.66a6.55,6.55,0,0,1,4-2.87C66.18,5.08,65.29,8.13,65.08,8.78Z"/><path class="cls-4" d="M42.09,21.26a4.18,4.18,0,0,0,1.1-4.66,4.34,4.34,0,0,0-.58-1L42,14.77a13.62,13.62,0,0,0-.36,3.11A15.54,15.54,0,0,0,42.09,21.26Z"/></g></g></svg>