<svg xmlns="http://www.w3.org/2000/svg" xmlns:xlink="http://www.w3.org/1999/xlink" viewBox="0 0 55.33 53.44"><defs><style>.cls-1{fill:url(#radial-gradient);}.cls-2{fill:none;}.cls-3{fill:#a5c1d6;}.cls-4{fill:#8dacc9;}.cls-5{clip-path:url(#clip-path);}.cls-6{mask:url(#mask);}.cls-7{fill:url(#radial-gradient-2);}</style><radialGradient id="radial-gradient" cx="1608.47" cy="-1173.03" r="0.17" gradientTransform="translate(-132043.19 16270.61) scale(82.11 13.83)" gradientUnits="userSpaceOnUse"><stop offset="0" stop-color="gray"/><stop offset="0.13" stop-color="#5f5f5f"/><stop offset="0.3" stop-color="#3d3d3d"/><stop offset="0.47" stop-color="#222"/><stop offset="0.64" stop-color="#0f0f0f"/><stop offset="0.81" stop-color="#040404"/><stop offset="1"/></radialGradient><clipPath id="clip-path"><rect class="cls-2" x="13.08" y="48.53" width="29.16" height="4.91"/></clipPath><mask id="mask" x="13.08" y="48.53" width="29.16" height="4.91" maskUnits="userSpaceOnUse"><rect class="cls-1" x="13.08" y="48.53" width="29.16" height="4.91"/></mask><radialGradient id="radial-gradient-2" cx="1608.47" cy="-1173.03" r="0.17" gradientTransform="translate(-132043.19 16270.61) scale(82.11 13.83)" gradientUnits="userSpaceOnUse"><stop offset="0" stop-color="#6087c4"/><stop offset="0" stop-color="#6087c4"/><stop offset="0.32" stop-color="#689ad2"/><stop offset="0.65" stop-color="#6ca5da"/><stop offset="1" stop-color="#6ea9dd"/></radialGradient></defs><title>Corazon huella</title><g id="Capa_2" data-name="Capa 2"><g id="Layer_2" data-name="Layer 2"><path class="cls-3" d="M41.37,0A14,14,0,0,0,29.86,6a3,3,0,0,1-2.2,1.28A3,3,0,0,1,25.47,6,14,14,0,0,0,1,19.12C4.9,31.26,22.4,45.54,27.66,46.06c5.27-.52,22.76-14.8,26.67-26.95A13.95,13.95,0,0,0,41.37,0ZM28.31,14.71c.47-2.28,2.43-3.8,4.39-3.4s3.16,2.58,2.69,4.85S33,20,31,19.57,27.84,17,28.31,14.71Zm-5.68-3.4c2-.4,3.92,1.12,4.39,3.4s-.73,4.45-2.69,4.85-3.92-1.12-4.39-3.4S20.68,11.72,22.63,11.32ZM13.64,23c-.94-2.13-.22-4.51,1.61-5.31s4.07.27,5,2.4.22,4.51-1.61,5.31S14.57,25.09,13.64,23ZM33.91,37.25a4.85,4.85,0,0,1-4.68-3.61,2,2,0,0,0-1.56-.57,2,2,0,0,0-1.56.57,4.86,4.86,0,1,1-6-5.92,6.93,6.93,0,0,0,2.86-3.26,4.69,4.69,0,0,1,4.72-3.25,4.69,4.69,0,0,1,4.72,3.25,6.94,6.94,0,0,0,2.86,3.26,4.86,4.86,0,0,1-1.33,9.53ZM41.69,23c-.94,2.13-3.18,3.2-5,2.4S34.14,22.18,35.08,20s3.18-3.2,5-2.4S42.63,20.83,41.69,23Z"/><path class="cls-4" d="M54.34,19.12a13.94,13.94,0,0,0-4.14-16L31,22.36a5.37,5.37,0,0,1,1.4,2.1,6.94,6.94,0,0,0,2.86,3.26,4.86,4.86,0,1,1-6,5.92,2,2,0,0,0-1.56-.57,2,2,0,0,0-1.56.57,4.85,4.85,0,0,1-8.35,1.94l-2.59,2.59c5.08,4.5,10.08,7.65,12.5,7.89C32.93,45.54,50.43,31.26,54.34,19.12ZM36.69,25.36c-1.83-.8-2.55-3.18-1.61-5.31s3.18-3.2,5-2.4,2.55,3.18,1.61,5.31S38.52,26.16,36.69,25.36Z"/><g class="cls-5"><g class="cls-6"><rect class="cls-7" x="13.08" y="48.53" width="29.16" height="4.91"/></g></g></g></g></svg>