<svg xmlns="http://www.w3.org/2000/svg" viewBox="0 0 152.44 152.53"><defs><style>.cls-1{fill:#81a36a;}.cls-2{fill:#a7c76e;}.cls-3{fill:#fff;}</style></defs><title>logo5</title><g id="Capa_2" data-name="Capa 2"><g id="Layer_1" data-name="Layer 1"><circle class="cls-1" cx="76.22" cy="76.31" r="76.22" transform="translate(-31.63 74.94) rotate(-44.31)"/><path class="cls-2" d="M23.14,21.61a76,76,0,0,1,107.46,1.3L21.84,129.08A76,76,0,0,1,23.14,21.61Z"/><path class="cls-3" d="M22.32,93.36c1.22-1.84,1.68-1.22,2.45-2.75s1.84-2.14,3.52-3.06S31,84.79,32.72,83s2.45-5.35,4.28-8.72,2.91-4.59,3.52-5.66-.46-2.75,0-4.74S44,57.26,45.11,54.2a27.77,27.77,0,0,1,1.68-4.59c1.38-3.06,3.82-4.74,6.42-9.79S57.65,32.18,59,28.2s6-9.94,6.12-14.38A28.12,28.12,0,0,1,66.52,5.1a4.82,4.82,0,0,1,1.07-1.68c.76-.76,2-3.67,3.52,0s2.6,7.65,3.21,8.72,1.68-.76,2.29-2.29S78,5.56,79.52,7.09s4.89,21.41,7,24.17S98.64,38.45,101.09,41s4.44,9.18,5.35,10.71,23.1,13.31,23.86,14.38,1.38,1.84,0,4-5.81,8.72-9.33,10.25A42.49,42.49,0,0,1,109,83.26,36,36,0,0,1,98.95,83c-2.6-.61-3.06.92-2.6,1.84s1.84,2.45,3.37,5.2a18.23,18.23,0,0,1,2.14,7.49c0,1.38-1.38,2.91-1.68,4.89s.76,2.75.92,4.74-.61,2.29-.46,6.27,2.29,6,2.29,8a28.46,28.46,0,0,0,1.07,8.26,54.07,54.07,0,0,1,2.45,10.1c.31,3.06,1.68,3.67.15,4S98.34,143.38,96,142s-8.57-4.59-11.47-7.8A146.15,146.15,0,0,0,68,118.59c-7.34-5.81-21.35-14.95-28.23-16.63S23,100.16,21.45,98.31A7.21,7.21,0,0,1,22.32,93.36Z"/></g></g></svg>