<svg xmlns="http://www.w3.org/2000/svg" viewBox="0 0 449.54 260.15"><defs><style>.cls-1,.cls-7{fill:#81a36a;}.cls-2{fill:#a7c76e;}.cls-3{fill:#fff;}.cls-4{font-size:61.12px;fill:#bcbec0;font-family:MyanmarText-Bold, Myanmar Text;font-weight:700;}.cls-5{stroke:#bcbec0;}.cls-5,.cls-7{stroke-miterlimit:10;}.cls-6{fill:#231f20;}.cls-7{stroke:#81a36a;letter-spacing:0em;}</style></defs><title>logo</title><g id="Capa_2" data-name="Capa 2"><g id="Layer_1" data-name="Layer 1"><circle class="cls-1" cx="224.77" cy="76.31" r="76.22" transform="translate(10.62 178.71) rotate(-44.31)"/><path class="cls-2" d="M171.69,21.61a76,76,0,0,1,107.46,1.3L170.39,129.08A76,76,0,0,1,171.69,21.61Z"/><path class="cls-3" d="M170.87,93.36c1.22-1.84,1.68-1.22,2.45-2.75s1.84-2.14,3.52-3.06,2.75-2.75,4.44-4.59,2.45-5.35,4.28-8.72,2.91-4.59,3.52-5.66-.46-2.75,0-4.74,3.52-6.58,4.59-9.64a27.77,27.77,0,0,1,1.68-4.59c1.38-3.06,3.82-4.74,6.42-9.79s4.44-7.65,5.81-11.62,6-9.94,6.12-14.38a28.12,28.12,0,0,1,1.38-8.72,4.82,4.82,0,0,1,1.07-1.68c.76-.76,2-3.67,3.52,0s2.6,7.65,3.21,8.72,1.68-.76,2.29-2.29,1.38-4.28,2.91-2.75,4.89,21.41,7,24.17,12.08,7.19,14.53,9.79,4.44,9.18,5.35,10.71,23.1,13.31,23.86,14.38,1.38,1.84,0,4-5.81,8.72-9.33,10.25a42.49,42.49,0,0,1-11.93,2.91A36,36,0,0,1,247.5,83c-2.6-.61-3.06.92-2.6,1.84s1.84,2.45,3.37,5.2a18.23,18.23,0,0,1,2.14,7.49c0,1.38-1.38,2.91-1.68,4.89s.76,2.75.92,4.74-.61,2.29-.46,6.27,2.29,6,2.29,8a28.46,28.46,0,0,0,1.07,8.26,54.07,54.07,0,0,1,2.45,10.1c.31,3.06,1.68,3.67.15,4s-8.26-.31-10.55-1.68-8.57-4.59-11.47-7.8a146.15,146.15,0,0,0-16.56-15.61c-7.34-5.81-21.35-14.95-28.23-16.63s-16.82-1.8-18.33-3.65A7.21,7.21,0,0,1,170.87,93.36Z"/><text class="cls-4" transform="translate(0.5 214.82)"><tspan class="cls-5">Maskotas</tspan><tspan class="cls-6" x="273.38" y="0"> </tspan><tspan class="cls-7" x="290.24" y="0">Mont</tspan></text></g></g></svg>